  0
SECTION
  2
HEADER
  9
$ACADVER
  1
AC1006
  9
$EXTMIN
 10
0.000000
 20
0.000000
 30
0.000000
  9
$EXTMAX
 10
383.000000
 20
371.000000
 30
0.000000
  0
ENDSEC
  0
SECTION
  2
ENTITIES
  0
POLYLINE
  8
0
 66
1
 70
1
  0
VERTEX
  8
0
 10
188.571202
 20
338.631923
 42
0.072059
  0
VERTEX
  8
0
 10
186.025184
 20
335.423513
 42
0.108715
  0
VERTEX
  8
0
 10
184.939601
 20
332.038537
 42
0.114765
  0
VERTEX
  8
0
 10
185.399756
 20
328.644800
 42
0.086985
  0
VERTEX
  8
0
 10
187.327423
 20
325.405737
 42
0.043346
  0
VERTEX
  8
0
 10
188.728246
 20
324.037055
 42
0.076511
  0
VERTEX
  8
0
 10
190.116661
 20
323.215274
 42
0.065591
  0
VERTEX
  8
0
 10
191.833544
 20
322.775578
 42
0.024575
  0
VERTEX
  8
0
 10
194.317493
 20
322.599973
 42
0.023644
  0
VERTEX
  8
0
 10
196.846903
 20
322.665353
 42
0.068049
  0
VERTEX
  8
0
 10
198.560151
 20
323.028745
 42
0.079145
  0
VERTEX
  8
0
 10
199.964087
 20
323.800937
 42
0.040576
  0
VERTEX
  8
0
 10
201.448928
 20
325.161986
 42
0.051201
  0
VERTEX
  8
0
 10
203.482299
 20
327.862172
 42
0.087266
  0
VERTEX
  8
0
 10
204.498365
 20
330.489244
 42
0.095635
  0
VERTEX
  8
0
 10
204.509641
 20
333.132336
 42
0.072835
  0
VERTEX
  8
0
 10
203.564449
 20
335.875369
 42
0.075186
  0
VERTEX
  8
0
 10
201.904678
 20
338.164555
 42
0.054557
  0
VERTEX
  8
0
 10
199.461948
 20
340.157574
 42
0.055506
  0
VERTEX
  8
0
 10
196.706496
 20
341.538090
 42
0.088621
  0
VERTEX
  8
0
 10
194.120862
 20
342.000000
 42
0.108337
  0
VERTEX
  8
0
 10
193.125108
 20
341.781684
 42
0.028461
  0
VERTEX
  8
0
 10
191.674536
 20
341.010627
 42
0.027527
  0
VERTEX
  8
0
 10
190.083678
 20
339.921055
 42
0.025149
  0
SEQEND
  0
POLYLINE
  8
0
 66
1
 70
1
  0
VERTEX
  8
0
 10
161.758044
 20
335.343211
 42
0.180768
  0
VERTEX
  8
0
 10
157.168280
 20
330.196079
 42
0.191190
  0
VERTEX
  8
0
 10
157.217408
 20
323.443727
 42
0.183386
  0
VERTEX
  8
0
 10
161.929190
 20
318.364002
 42
0.170736
  0
VERTEX
  8
0
 10
168.991276
 20
317.498084
 42
0.162173
  0
VERTEX
  8
0
 10
173.716719
 20
320.316228
 42
0.151776
  0
VERTEX
  8
0
 10
175.964475
 20
325.484403
 42
0.148889
  0
VERTEX
  8
0
 10
174.905583
 20
331.092632
 42
0.155442
  0
VERTEX
  8
0
 10
170.911384
 20
335.045208
 42
0.021688
  0
VERTEX
  8
0
 10
167.993578
 20
336.377643
 42
0.088344
  0
VERTEX
  8
0
 10
166.093083
 20
336.780288
 42
0.098814
  0
VERTEX
  8
0
 10
164.281309
 20
336.479638
 42
0.030878
  0
SEQEND
  0
POLYLINE
  8
0
 66
1
 70
1
  0
VERTEX
  8
0
 10
216.923077
 20
333.076923
 42
0.081867
  0
VERTEX
  8
0
 10
214.806907
 20
330.125405
 42
0.104440
  0
VERTEX
  8
0
 10
213.978849
 20
326.889671
 42
0.105032
  0
VERTEX
  8
0
 10
214.531431
 20
323.609405
 42
0.083611
  0
VERTEX
  8
0
 10
216.390630
 20
320.528928
 42
0.033159
  0
VERTEX
  8
0
 10
217.387222
 20
319.513723
 42
0.047202
  0
VERTEX
  8
0
 10
218.404890
 20
318.765438
 42
0.057241
  0
VERTEX
  8
0
 10
219.299236
 20
318.360315
 42
0.219567
  0
VERTEX
  8
0
 10
219.890630
 20
318.432406
 42
-0.072420
  0
VERTEX
  8
0
 10
220.315065
 20
318.616367
 42
-0.148341
  0
VERTEX
  8
0
 10
220.674123
 20
318.605544
 42
-0.188745
  0
VERTEX
  8
0
 10
220.911226
 20
318.406738
 42
-0.125636
  0
VERTEX
  8
0
 10
221.000000
 20
318.059017
 42
0.332186
  0
VERTEX
  8
0
 10
221.619586
 20
317.229337
 42
0.094588
  0
VERTEX
  8
0
 10
223.322228
 20
317.059685
 42
0.063267
  0
VERTEX
  8
0
 10
225.666246
 20
317.573197
 42
0.047920
  0
VERTEX
  8
0
 10
228.053325
 20
318.690571
 42
0.137652
  0
VERTEX
  8
0
 10
231.522911
 20
322.314463
 42
0.130694
  0
VERTEX
  8
0
 10
232.688640
 20
327.289823
 42
0.138850
  0
VERTEX
  8
0
 10
231.213284
 20
331.964652
 42
0.161939
  0
VERTEX
  8
0
 10
227.572536
 20
334.837610
 42
0.038052
  0
VERTEX
  8
0
 10
224.174036
 20
335.781499
 42
0.089914
  0
VERTEX
  8
0
 10
221.555364
 20
335.822083
 42
0.100263
  0
VERTEX
  8
0
 10
219.266945
 20
334.951019
 42
0.055516
  0
SEQEND
  0
POLYLINE
  8
0
 66
1
 70
1
  0
VERTEX
  8
0
 10
134.103592
 20
318.465204
 42
0.050430
  0
VERTEX
  8
0
 10
131.878790
 20
315.347244
 42
0.129812
  0
VERTEX
  8
0
 10
131.170748
 20
312.694231
 42
0.126724
  0
VERTEX
  8
0
 10
131.858032
 20
309.996775
 42
0.046982
  0
VERTEX
  8
0
 10
134.072804
 20
306.727844
 42
0.023356
  0
VERTEX
  8
0
 10
135.922604
 20
304.685949
 42
0.080665
  0
VERTEX
  8
0
 10
137.363513
 20
303.641896
 42
0.086905
  0
VERTEX
  8
0
 10
139.001777
 20
303.148238
 42
0.029834
  0
VERTEX
  8
0
 10
141.483910
 20
303.000000
 42
0.028504
  0
VERTEX
  8
0
 10
143.887869
 20
303.137158
 42
0.078463
  0
VERTEX
  8
0
 10
145.519235
 20
303.589691
 42
0.080321
  0
VERTEX
  8
0
 10
146.909937
 20
304.515806
 42
0.030884
  0
VERTEX
  8
0
 10
148.515797
 20
306.201143
 42
0.138829
  0
VERTEX
  8
0
 10
150.746929
 20
311.149181
 42
0.144431
  0
VERTEX
  8
0
 10
150.004593
 20
316.449142
 42
0.145556
  0
VERTEX
  8
0
 10
146.513613
 20
320.468832
 42
0.141541
  0
VERTEX
  8
0
 10
141.353592
 20
321.982723
 42
0.033179
  0
VERTEX
  8
0
 10
139.033747
 20
321.838317
 42
0.080980
  0
VERTEX
  8
0
 10
137.398012
 20
321.349997
 42
0.074669
  0
VERTEX
  8
0
 10
135.924376
 20
320.340144
 42
0.025111
  0
SEQEND
  0
POLYLINE
  8
0
 66
1
 70
1
  0
VERTEX
  8
0
 10
241.548101
 20
318.050207
 42
0.027443
  0
VERTEX
  8
0
 10
240.078559
 20
316.337422
 42
0.081554
  0
VERTEX
  8
0
 10
239.350767
 20
314.977837
 42
0.087652
  0
VERTEX
  8
0
 10
239.123708
 20
313.514002
 42
0.034991
  0
VERTEX
  8
0
 10
239.308673
 20
311.485295
 42
0.045525
  0
VERTEX
  8
0
 10
239.733935
 20
309.832679
 42
0.044219
  0
VERTEX
  8
0
 10
240.454214
 20
308.267234
 42
0.044995
  0
VERTEX
  8
0
 10
241.423666
 20
306.878805
 42
0.051247
  0
VERTEX
  8
0
 10
242.588572
 20
305.751670
 42
0.073712
  0
VERTEX
  8
0
 10
245.060715
 20
304.338319
 42
0.043370
  0
VERTEX
  8
0
 10
248.333839
 20
303.377544
 42
0.045397
  0
VERTEX
  8
0
 10
251.197608
 20
303.066769
 42
0.419309
  0
VERTEX
  8
0
 10
252.000000
 20
303.855348
 42
-0.177104
  0
VERTEX
  8
0
 10
252.141415
 20
304.242068
 42
-0.061491
  0
VERTEX
  8
0
 10
252.583963
 20
304.651727
 42
-0.051753
  0
VERTEX
  8
0
 10
253.227144
 20
305.020486
 42
-0.040370
  0
VERTEX
  8
0
 10
253.987960
 20
305.286600
 42
0.220881
  0
VERTEX
  8
0
 10
256.532963
 20
307.389474
 42
0.098481
  0
VERTEX
  8
0
 10
257.629968
 20
311.701390
 42
0.091527
  0
VERTEX
  8
0
 10
257.019355
 20
316.381105
 42
0.163301
  0
VERTEX
  8
0
 10
254.737573
 20
319.471258
 42
0.064951
  0
VERTEX
  8
0
 10
253.612872
 20
320.058639
 42
0.028140
  0
VERTEX
  8
0
 10
251.994566
 20
320.550932
 42
0.027262
  0
VERTEX
  8
0
 10
250.190764
 20
320.887622
 42
0.032517
  0
VERTEX
  8
0
 10
248.464585
 20
321.000000
 42
0.033627
  0
VERTEX
  8
0
 10
246.290319
 20
320.853608
 42
0.067270
  0
VERTEX
  8
0
 10
244.632642
 20
320.396986
 42
0.067317
  0
VERTEX
  8
0
 10
243.156394
 20
319.516965
 42
0.033718
  0
SEQEND
  0
POLYLINE
  8
0
 66
1
 70
1
  0
VERTEX
  8
0
 10
252.000000
 20
317.000000
 42
-0.099038
  0
VERTEX
  8
0
 10
251.923658
 20
316.618362
 42
-0.097945
  0
VERTEX
  8
0
 10
251.706250
 20
316.293750
 42
-0.097945
  0
VERTEX
  8
0
 10
251.381638
 20
316.076342
 42
-0.099038
  0
VERTEX
  8
0
 10
251.000000
 20
316.000000
 42
-0.099038
  0
VERTEX
  8
0
 10
250.618362
 20
316.076342
 42
-0.097945
  0
VERTEX
  8
0
 10
250.293750
 20
316.293750
 42
-0.097945
  0
VERTEX
  8
0
 10
250.076342
 20
316.618362
 42
-0.099038
  0
VERTEX
  8
0
 10
250.000000
 20
317.000000
 42
-0.099038
  0
VERTEX
  8
0
 10
250.076342
 20
317.381638
 42
-0.097945
  0
VERTEX
  8
0
 10
250.293750
 20
317.706250
 42
-0.097945
  0
VERTEX
  8
0
 10
250.618362
 20
317.923658
 42
-0.099038
  0
VERTEX
  8
0
 10
251.000000
 20
318.000000
 42
-0.099038
  0
VERTEX
  8
0
 10
251.381638
 20
317.923658
 42
-0.097945
  0
VERTEX
  8
0
 10
251.706250
 20
317.706250
 42
-0.097945
  0
VERTEX
  8
0
 10
251.923658
 20
317.381638
 42
-0.099038
  0
SEQEND
  0
POLYLINE
  8
0
 66
1
 70
1
  0
VERTEX
  8
0
 10
178.174314
 20
316.685549
 42
0.080554
  0
VERTEX
  8
0
 10
176.548319
 20
314.274992
 42
0.132664
  0
VERTEX
  8
0
 10
176.137710
 20
311.866751
 42
0.121020
  0
VERTEX
  8
0
 10
176.990896
 20
309.422060
 42
0.060772
  0
VERTEX
  8
0
 10
179.105755
 20
306.901210
 42
0.042638
  0
VERTEX
  8
0
 10
181.669657
 20
304.886029
 42
0.123537
  0
VERTEX
  8
0
 10
183.785013
 20
304.149436
 42
0.134779
  0
VERTEX
  8
0
 10
185.883345
 20
304.528432
 42
0.055026
  0
VERTEX
  8
0
 10
188.365141
 20
306.072580
 42
0.044621
  0
VERTEX
  8
0
 10
189.576769
 20
307.214295
 42
0.066719
  0
VERTEX
  8
0
 10
190.388235
 20
308.419256
 42
0.067642
  0
VERTEX
  8
0
 10
190.846639
 20
309.782618
 42
0.047355
  0
VERTEX
  8
0
 10
191.000000
 20
311.398266
 42
0.150144
  0
VERTEX
  8
0
 10
189.713902
 20
315.584607
 42
0.146959
  0
VERTEX
  8
0
 10
186.290135
 20
318.369419
 42
0.149060
  0
VERTEX
  8
0
 10
181.937817
 20
318.784462
 42
0.155163
  0
SEQEND
  0
POLYLINE
  8
0
 66
1
 70
1
  0
VERTEX
  8
0
 10
201.174314
 20
316.685549
 42
0.093671
  0
VERTEX
  8
0
 10
199.580556
 20
314.184730
 42
0.098801
  0
VERTEX
  8
0
 10
199.048892
 20
311.322074
 42
0.100609
  0
VERTEX
  8
0
 10
199.658289
 20
308.516320
 42
0.100888
  0
VERTEX
  8
0
 10
201.314451
 20
306.174314
 42
0.079638
  0
VERTEX
  8
0
 10
203.689917
 20
304.565688
 42
0.128921
  0
VERTEX
  8
0
 10
206.076544
 20
304.131691
 42
0.117798
  0
VERTEX
  8
0
 10
208.522602
 20
304.918098
 42
0.060027
  0
VERTEX
  8
0
 10
211.076923
 20
306.923077
 42
0.051650
  0
VERTEX
  8
0
 10
213.132590
 20
309.453782
 42
0.133052
  0
VERTEX
  8
0
 10
213.854968
 20
311.674967
 42
0.140262
  0
VERTEX
  8
0
 10
213.341131
 20
313.881187
 42
0.060042
  0
VERTEX
  8
0
 10
211.547749
 20
316.353977
 42
0.086413
  0
VERTEX
  8
0
 10
209.066725
 20
318.243939
 42
0.112126
  0
VERTEX
  8
0
 10
206.308526
 20
318.963733
 42
0.115917
  0
VERTEX
  8
0
 10
203.579054
 20
318.413706
 42
0.097041
  0
SEQEND
  0
POLYLINE
  8
0
 66
1
 70
1
  0
VERTEX
  8
0
 10
158.776697
 20
310.168369
 42
0.156032
  0
VERTEX
  8
0
 10
155.905246
 20
306.873394
 42
0.163293
  0
VERTEX
  8
0
 10
155.546586
 20
302.589517
 42
0.160275
  0
VERTEX
  8
0
 10
157.850453
 20
298.898793
 42
0.150269
  0
VERTEX
  8
0
 10
161.958291
 20
297.178481
 42
0.157221
  0
VERTEX
  8
0
 10
166.492856
 20
298.162054
 42
0.167244
  0
VERTEX
  8
0
 10
169.463294
 20
301.590866
 42
0.170064
  0
VERTEX
  8
0
 10
169.667751
 20
306.074830
 42
0.162102
  0
VERTEX
  8
0
 10
167.040493
 20
309.811942
 42
0.033204
  0
VERTEX
  8
0
 10
164.711887
 20
311.305340
 42
0.115704
  0
VERTEX
  8
0
 10
163.003465
 20
311.784580
 42
0.114884
  0
VERTEX
  8
0
 10
161.253232
 20
311.455843
 42
0.032506
  0
SEQEND
  0
POLYLINE
  8
0
 66
1
 70
1
  0
VERTEX
  8
0
 10
222.250000
 20
309.654389
 42
0.180997
  0
VERTEX
  8
0
 10
220.093816
 20
304.989040
 42
0.182514
  0
VERTEX
  8
0
 10
221.540445
 20
300.074001
 42
0.180008
  0
VERTEX
  8
0
 10
225.898570
 20
297.297183
 42
0.177451
  0
VERTEX
  8
0
 10
231.042823
 20
298.022918
 42
0.132771
  0
VERTEX
  8
0
 10
233.740473
 20
300.563365
 42
0.141856
  0
VERTEX
  8
0
 10
234.704384
 20
304.052056
 42
0.137948
  0
VERTEX
  8
0
 10
233.662292
 20
307.590269
 42
0.123116
  0
VERTEX
  8
0
 10
230.892910
 20
310.250000
 42
0.039784
  0
VERTEX
  8
0
 10
228.199786
 20
311.520106
 42
0.107906
  0
VERTEX
  8
0
 10
226.122806
 20
311.825889
 42
0.121159
  0
VERTEX
  8
0
 10
224.254399
 20
311.227495
 42
0.057227
  0
SEQEND
  0
POLYLINE
  8
0
 66
1
 70
1
  0
VERTEX
  8
0
 10
191.634859
 20
301.927420
 42
0.039327
  0
VERTEX
  8
0
 10
190.626684
 20
300.997336
 42
0.039053
  0
VERTEX
  8
0
 10
189.773990
 20
299.918801
 42
0.041892
  0
VERTEX
  8
0
 10
189.184353
 20
298.857670
 42
0.106260
  0
VERTEX
  8
0
 10
189.000000
 20
298.000000
 42
0.163874
  0
VERTEX
  8
0
 10
189.525977
 20
296.438280
 42
0.037637
  0
VERTEX
  8
0
 10
191.396607
 20
294.326685
 42
0.037868
  0
VERTEX
  8
0
 10
193.569670
 20
292.515220
 42
0.156047
  0
VERTEX
  8
0
 10
195.180313
 20
292.000000
 42
0.180864
  0
VERTEX
  8
0
 10
196.409403
 20
292.459633
 42
0.021236
  0
VERTEX
  8
0
 10
198.569777
 20
294.505519
 42
0.021556
  0
VERTEX
  8
0
 10
200.547455
 20
296.728632
 42
0.172669
  0
VERTEX
  8
0
 10
201.000000
 20
298.000000
 42
0.172669
  0
VERTEX
  8
0
 10
200.547455
 20
299.271368
 42
0.021556
  0
VERTEX
  8
0
 10
198.569777
 20
301.494481
 42
0.021236
  0
VERTEX
  8
0
 10
196.409403
 20
303.540367
 42
0.180864
  0
VERTEX
  8
0
 10
195.180313
 20
304.000000
 42
0.115085
  0
VERTEX
  8
0
 10
194.676049
 20
303.882376
 42
0.017671
  0
VERTEX
  8
0
 10
193.763215
 20
303.391180
 42
0.018949
  0
VERTEX
  8
0
 10
192.710414
 20
302.720972
 42
0.015434
  0
SEQEND
  0
POLYLINE
  8
0
 66
1
 70
1
  0
VERTEX
  8
0
 10
117.364082
 20
298.885174
 42
0.126268
  0
VERTEX
  8
0
 10
114.918459
 20
296.728480
 42
0.088960
  0
VERTEX
  8
0
 10
113.418451
 20
293.364444
 42
0.082392
  0
VERTEX
  8
0
 10
113.113176
 20
289.436899
 42
0.085378
  0
VERTEX
  8
0
 10
114.103089
 20
285.673090
 42
0.186434
  0
VERTEX
  8
0
 10
117.322558
 20
282.522199
 42
0.104442
  0
VERTEX
  8
0
 10
122.768495
 20
281.430343
 42
0.105827
  0
VERTEX
  8
0
 10
128.134394
 20
282.636642
 42
0.195077
  0
VERTEX
  8
0
 10
131.147051
 20
285.848020
 42
0.079719
  0
VERTEX
  8
0
 10
131.755030
 20
288.713610
 42
0.043186
  0
VERTEX
  8
0
 10
131.623730
 20
292.323628
 42
0.043167
  0
VERTEX
  8
0
 10
130.907232
 20
295.702551
 42
0.123158
  0
VERTEX
  8
0
 10
129.679768
 20
297.748803
 42
0.136311
  0
VERTEX
  8
0
 10
127.601527
 20
298.923450
 42
0.037890
  0
VERTEX
  8
0
 10
123.876976
 20
299.554181
 42
0.038713
  0
VERTEX
  8
0
 10
120.015034
 20
299.610659
 42
0.102540
  0
SEQEND
  0
POLYLINE
  8
0
 66
1
 70
1
  0
VERTEX
  8
0
 10
174.200000
 20
298.800000
 42
0.176989
  0
VERTEX
  8
0
 10
172.959598
 20
296.131012
 42
0.127561
  0
VERTEX
  8
0
 10
173.517074
 20
292.864836
 42
0.125221
  0
VERTEX
  8
0
 10
175.606409
 20
290.238175
 42
0.168271
  0
VERTEX
  8
0
 10
178.474666
 20
289.299489
 42
0.136575
  0
VERTEX
  8
0
 10
180.209151
 20
289.814454
 42
0.063133
  0
VERTEX
  8
0
 10
182.044482
 20
291.317461
 42
0.062616
  0
VERTEX
  8
0
 10
183.468545
 20
293.256508
 42
0.122489
  0
VERTEX
  8
0
 10
183.966731
 20
295.095012
 42
0.201834
  0
VERTEX
  8
0
 10
182.978082
 20
297.588624
 42
0.108533
  0
VERTEX
  8
0
 10
180.161128
 20
299.429363
 42
0.105516
  0
VERTEX
  8
0
 10
176.765218
 20
299.950679
 42
0.183899
  0
SEQEND
  0
POLYLINE
  8
0
 66
1
 70
1
  0
VERTEX
  8
0
 10
207.654988
 20
298.171259
 42
0.072205
  0
VERTEX
  8
0
 10
206.460268
 20
296.392319
 42
0.118728
  0
VERTEX
  8
0
 10
206.082684
 20
294.628544
 42
0.118637
  0
VERTEX
  8
0
 10
206.549458
 20
292.885310
 42
0.072025
  0
VERTEX
  8
0
 10
207.833333
 20
291.166667
 42
0.079240
  0
VERTEX
  8
0
 10
209.600577
 20
289.885575
 42
0.104898
  0
VERTEX
  8
0
 10
211.515965
 20
289.375901
 42
0.107024
  0
VERTEX
  8
0
 10
213.444215
 20
289.691432
 42
0.085318
  0
VERTEX
  8
0
 10
215.250000
 20
290.787810
 42
0.121533
  0
VERTEX
  8
0
 10
216.419275
 20
292.450023
 42
0.075799
  0
VERTEX
  8
0
 10
216.941336
 20
294.786309
 42
0.077118
  0
VERTEX
  8
0
 10
216.740960
 20
297.127076
 42
0.137372
  0
VERTEX
  8
0
 10
215.800000
 20
298.800000
 42
0.137901
  0
VERTEX
  8
0
 10
214.110110
 20
299.748198
 42
0.078735
  0
VERTEX
  8
0
 10
211.759815
 20
299.936874
 42
0.076507
  0
VERTEX
  8
0
 10
209.393600
 20
299.383445
 42
0.113675
  0
SEQEND
  0
POLYLINE
  8
0
 66
1
 70
1
  0
VERTEX
  8
0
 10
260.923077
 20
297.076923
 42
0.131132
  0
VERTEX
  8
0
 10
258.308793
 20
292.559532
 42
0.148252
  0
VERTEX
  8
0
 10
258.461213
 20
287.565869
 42
0.146487
  0
VERTEX
  8
0
 10
261.369904
 20
283.454954
 42
0.127240
  0
VERTEX
  8
0
 10
266.223464
 20
281.339703
 42
0.036166
  0
VERTEX
  8
0
 10
268.404985
 20
281.152564
 42
0.099776
  0
VERTEX
  8
0
 10
269.913989
 20
281.435927
 42
0.081478
  0
VERTEX
  8
0
 10
271.367982
 20
282.321608
 42
0.018925
  0
VERTEX
  8
0
 10
273.473464
 20
284.273464
 42
0.042650
  0
VERTEX
  8
0
 10
275.690026
 20
286.904258
 42
0.095140
  0
VERTEX
  8
0
 10
276.765178
 20
289.278631
 42
0.109155
  0
VERTEX
  8
0
 10
276.808256
 20
291.666918
 42
0.068435
  0
VERTEX
  8
0
 10
275.882960
 20
294.315741
 42
0.102074
  0
VERTEX
  8
0
 10
272.937601
 20
297.986649
 42
0.127855
  0
VERTEX
  8
0
 10
268.995564
 20
299.827330
 42
0.131632
  0
VERTEX
  8
0
 10
264.744406
 20
299.489763
 42
0.111559
  0
SEQEND
  0
POLYLINE
  8
0
 66
1
 70
1
  0
VERTEX
  8
0
 10
275.000000
 20
290.000000
 42
-0.105053
  0
VERTEX
  8
0
 10
274.918938
 20
289.618444
 42
-0.099167
  0
VERTEX
  8
0
 10
274.688914
 20
289.293750
 42
-0.096420
  0
VERTEX
  8
0
 10
274.345238
 20
289.076123
 42
-0.093332
  0
VERTEX
  8
0
 10
273.940983
 20
289.000000
 42
-0.108972
  0
VERTEX
  8
0
 10
273.586039
 20
289.078288
 42
-0.182303
  0
VERTEX
  8
0
 10
273.374600
 20
289.293750
 42
-0.161196
  0
VERTEX
  8
0
 10
273.343488
 20
289.617900
 42
-0.082592
  0
VERTEX
  8
0
 10
273.500000
 20
290.000000
 42
-0.029505
  0
VERTEX
  8
0
 10
273.768994
 20
290.382774
 42
-0.035638
  0
VERTEX
  8
0
 10
274.066025
 20
290.706250
 42
-0.038439
  0
VERTEX
  8
0
 10
274.348290
 20
290.934461
 42
-0.151918
  0
VERTEX
  8
0
 10
274.559017
 20
291.000000
 42
-0.210953
  0
VERTEX
  8
0
 10
274.727648
 20
290.925540
 42
-0.081139
  0
VERTEX
  8
0
 10
274.870461
 20
290.706250
 42
-0.061769
  0
VERTEX
  8
0
 10
274.967655
 20
290.382849
 42
-0.042167
  0
SEQEND
  0
POLYLINE
  8
0
 66
1
 70
1
  0
VERTEX
  8
0
 10
141.389097
 20
295.658264
 42
0.139195
  0
VERTEX
  8
0
 10
138.870178
 20
291.845408
 42
0.166627
  0
VERTEX
  8
0
 10
138.968729
 20
287.564392
 42
0.166995
  0
VERTEX
  8
0
 10
141.671373
 20
284.250649
 42
0.139823
  0
VERTEX
  8
0
 10
146.056212
 20
283.000000
 42
0.033864
  0
VERTEX
  8
0
 10
148.139317
 20
283.141246
 42
0.099807
  0
VERTEX
  8
0
 10
149.488964
 20
283.610114
 42
0.096252
  0
VERTEX
  8
0
 10
150.579130
 20
284.576386
 42
0.030163
  0
VERTEX
  8
0
 10
151.804877
 20
286.393864
 42
0.015828
  0
VERTEX
  8
0
 10
153.001072
 20
288.576256
 42
0.111985
  0
VERTEX
  8
0
 10
153.294367
 20
289.740921
 42
0.122620
  0
VERTEX
  8
0
 10
153.041293
 20
290.870703
 42
0.020501
  0
VERTEX
  8
0
 10
151.957164
 20
292.830042
 42
0.045482
  0
VERTEX
  8
0
 10
150.460958
 20
294.851046
 42
0.048808
  0
VERTEX
  8
0
 10
148.655951
 20
296.516051
 42
0.053944
  0
VERTEX
  8
0
 10
146.790022
 20
297.633916
 42
0.108414
  0
VERTEX
  8
0
 10
145.121505
 20
298.000000
 42
0.121062
  0
VERTEX
  8
0
 10
144.571278
 20
297.864795
 42
0.019609
  0
VERTEX
  8
0
 10
143.608494
 20
297.312115
 42
0.020653
  0
VERTEX
  8
0
 10
142.505461
 20
296.554850
 42
0.016861
  0
SEQEND
  0
POLYLINE
  8
0
 66
1
 70
1
  0
VERTEX
  8
0
 10
239.927338
 20
294.932124
 42
0.055549
  0
VERTEX
  8
0
 10
237.946927
 20
292.620832
 42
0.121499
  0
VERTEX
  8
0
 10
237.140336
 20
290.449379
 42
0.130462
  0
VERTEX
  8
0
 10
237.462085
 20
288.255413
 42
0.069006
  0
VERTEX
  8
0
 10
238.892790
 20
285.884071
 42
0.113088
  0
VERTEX
  8
0
 10
240.736439
 20
284.438618
 42
0.052900
  0
VERTEX
  8
0
 10
243.618402
 20
283.438580
 42
0.061722
  0
VERTEX
  8
0
 10
246.182970
 20
283.168283
 42
0.408870
  0
VERTEX
  8
0
 10
247.000000
 20
284.000386
 42
-0.198623
  0
VERTEX
  8
0
 10
247.136765
 20
284.331086
 42
-0.053522
  0
VERTEX
  8
0
 10
247.587500
 20
284.695256
 42
-0.045546
  0
VERTEX
  8
0
 10
248.234302
 20
285.033304
 42
-0.033711
  0
VERTEX
  8
0
 10
249.000000
 20
285.289749
 42
0.096675
  0
VERTEX
  8
0
 10
249.986926
 20
285.764700
 42
0.131346
  0
VERTEX
  8
0
 10
250.596721
 20
286.537060
 42
0.081402
  0
VERTEX
  8
0
 10
250.912545
 20
287.801976
 42
0.020561
  0
VERTEX
  8
0
 10
251.000000
 20
289.927819
 42
0.023292
  0
VERTEX
  8
0
 10
250.896591
 20
292.146496
 42
0.087967
  0
VERTEX
  8
0
 10
250.528917
 20
293.482104
 42
0.117131
  0
VERTEX
  8
0
 10
249.788540
 20
294.402710
 42
0.058255
  0
VERTEX
  8
0
 10
248.500000
 20
295.181954
 42
-0.020807
  0
VERTEX
  8
0
 10
247.542460
 20
295.667310
 42
-0.029110
  0
VERTEX
  8
0
 10
246.734375
 20
296.184067
 42
-0.028900
  0
VERTEX
  8
0
 10
246.143893
 20
296.666404
 42
-0.210029
  0
VERTEX
  8
0
 10
246.000000
 20
296.993848
 42
0.377777
  0
VERTEX
  8
0
 10
245.418800
 20
297.653304
 42
0.113808
  0
VERTEX
  8
0
 10
243.973882
 20
297.507370
 42
0.063297
  0
VERTEX
  8
0
 10
241.949185
 20
296.520015
 42
0.042829
  0
SEQEND
  0
POLYLINE
  8
0
 66
1
 70
1
  0
VERTEX
  8
0
 10
93.000000
 20
284.229151
 42
0.006478
  0
VERTEX
  8
0
 10
93.060757
 20
279.540082
 42
0.010769
  0
VERTEX
  8
0
 10
93.248222
 20
275.592313
 42
0.004580
  0
VERTEX
  8
0
 10
93.505144
 20
272.311419
 42
0.388866
  0
VERTEX
  8
0
 10
93.845012
 20
272.000000
 42
0.137806
  0
VERTEX
  8
0
 10
94.284832
 20
272.123566
 42
0.025433
  0
VERTEX
  8
0
 10
94.987223
 20
272.602683
 42
0.025587
  0
VERTEX
  8
0
 10
95.773943
 20
273.266196
 42
0.020859
  0
VERTEX
  8
0
 10
96.546777
 20
274.051688
 42
-0.023291
  0
VERTEX
  8
0
 10
97.776667
 20
275.289627
 42
-0.290058
  0
VERTEX
  8
0
 10
98.399190
 20
275.401279
 42
-0.170934
  0
VERTEX
  8
0
 10
98.979807
 20
274.886101
 42
-0.008108
  0
VERTEX
  8
0
 10
100.225654
 20
272.551688
 42
0.010343
  0
VERTEX
  8
0
 10
100.959888
 20
271.190594
 42
0.015740
  0
VERTEX
  8
0
 10
101.658358
 20
270.043308
 42
0.010336
  0
VERTEX
  8
0
 10
102.276494
 20
269.137869
 42
0.242363
  0
VERTEX
  8
0
 10
102.544214
 20
269.000000
 42
0.513116
  0
VERTEX
  8
0
 10
102.659339
 20
269.160368
 42
0.011411
  0
VERTEX
  8
0
 10
102.279655
 20
270.205823
 42
0.016123
  0
VERTEX
  8
0
 10
101.714350
 20
271.530225
 42
0.009019
  0
VERTEX
  8
0
 10
100.946468
 20
273.104930
 42
0.000000
  0
VERTEX
  8
0
 10
98.852289
 20
277.209861
 42
0.000000
  0
VERTEX
  8
0
 10
96.426145
 20
274.930616
 42
0.000000
  0
VERTEX
  8
0
 10
94.000000
 20
272.651372
 42
0.000000
  0
VERTEX
  8
0
 10
94.000000
 20
283.552226
 42
0.000000
  0
VERTEX
  8
0
 10
94.000000
 20
294.453080
 42
0.000000
  0
VERTEX
  8
0
 10
102.035501
 20
286.476540
 42
0.000000
  0
VERTEX
  8
0
 10
110.071002
 20
278.500000
 42
0.000000
  0
VERTEX
  8
0
 10
106.535501
 20
278.189635
 42
0.013439
  0
VERTEX
  8
0
 10
103.898436
 20
277.886534
 42
0.251823
  0
VERTEX
  8
0
 10
103.248106
 20
277.407671
 42
0.222955
  0
VERTEX
  8
0
 10
103.244745
 20
276.561914
 42
0.010622
  0
VERTEX
  8
0
 10
104.525680
 20
273.950340
 42
-0.021766
  0
VERTEX
  8
0
 10
105.050024
 20
272.818182
 42
-0.042017
  0
VERTEX
  8
0
 10
105.350857
 20
271.866662
 42
-0.064573
  0
VERTEX
  8
0
 10
105.412087
 20
271.212032
 42
-0.403795
  0
VERTEX
  8
0
 10
105.192347
 20
271.000000
 42
0.135807
  0
VERTEX
  8
0
 10
104.850483
 20
270.905400
 42
0.084266
  0
VERTEX
  8
0
 10
104.532097
 20
270.632812
 42
0.073386
  0
VERTEX
  8
0
 10
104.284878
 20
270.227861
 42
0.064267
  0
VERTEX
  8
0
 10
104.150963
 20
269.750000
 42
0.004982
  0
VERTEX
  8
0
 10
103.314813
 20
263.589863
 42
0.058055
  0
VERTEX
  8
0
 10
103.293059
 20
261.164399
 42
0.111625
  0
VERTEX
  8
0
 10
103.894241
 20
259.405465
 42
0.036976
  0
VERTEX
  8
0
 10
105.501123
 20
257.181035
 42
0.031209
  0
VERTEX
  8
0
 10
107.084427
 20
255.521528
 42
0.078801
  0
VERTEX
  8
0
 10
108.468035
 20
254.596690
 42
0.078013
  0
VERTEX
  8
0
 10
110.078414
 20
254.140180
 42
0.030140
  0
VERTEX
  8
0
 10
112.401802
 20
254.000000
 42
0.143926
  0
VERTEX
  8
0
 10
117.907383
 20
255.618320
 42
0.155073
  0
VERTEX
  8
0
 10
121.469093
 20
259.922189
 42
0.155345
  0
VERTEX
  8
0
 10
121.889427
 20
265.486458
 42
0.144489
  0
VERTEX
  8
0
 10
119.044404
 20
270.457459
 42
0.029275
  0
VERTEX
  8
0
 10
117.210874
 20
272.018981
 42
0.092363
  0
VERTEX
  8
0
 10
115.772116
 20
272.736684
 42
0.080449
  0
VERTEX
  8
0
 10
114.062109
 20
272.939338
 42
0.018826
  0
VERTEX
  8
0
 10
111.176332
 20
272.707290
 42
-0.012563
  0
VERTEX
  8
0
 10
108.249651
 20
272.435023
 42
-0.091876
  0
VERTEX
  8
0
 10
106.857277
 20
272.596701
 42
-0.155587
  0
VERTEX
  8
0
 10
105.959704
 20
273.220745
 42
-0.056820
  0
VERTEX
  8
0
 10
105.153368
 20
274.562740
 42
-0.024832
  0
VERTEX
  8
0
 10
104.559198
 20
276.059588
 42
-0.281938
  0
VERTEX
  8
0
 10
104.693134
 20
276.654647
 42
-0.190502
  0
VERTEX
  8
0
 10
105.346674
 20
276.949092
 42
-0.011703
  0
VERTEX
  8
0
 10
107.521439
 20
277.000000
 42
0.020886
  0
VERTEX
  8
0
 10
108.854703
 20
277.055717
 42
0.033649
  0
VERTEX
  8
0
 10
109.978173
 20
277.226437
 42
0.036814
  0
VERTEX
  8
0
 10
110.793876
 20
277.471339
 42
0.310851
  0
VERTEX
  8
0
 10
111.000000
 20
277.770849
 42
0.186537
  0
VERTEX
  8
0
 10
110.804494
 20
278.276656
 42
0.002204
  0
VERTEX
  8
0
 10
108.356250
 20
280.946763
 42
0.006287
  0
VERTEX
  8
0
 10
105.449680
 20
284.010619
 42
0.004022
  0
VERTEX
  8
0
 10
102.000000
 20
287.500000
 42
0.000000
  0
VERTEX
  8
0
 10
93.000000
 20
296.458301
 42
0.000000
  0
SEQEND
  0
POLYLINE
  8
0
 66
1
 70
1
  0
VERTEX
  8
0
 10
159.654988
 20
290.171259
 42
0.153237
  0
VERTEX
  8
0
 10
157.995868
 20
286.567482
 42
0.197650
  0
VERTEX
  8
0
 10
158.934040
 20
283.081861
 42
0.202689
  0
VERTEX
  8
0
 10
162.022621
 20
281.323115
 42
0.158563
  0
VERTEX
  8
0
 10
165.843100
 20
282.084948
 42
0.102737
  0
VERTEX
  8
0
 10
167.651659
 20
283.658705
 42
0.122954
  0
VERTEX
  8
0
 10
168.539550
 20
285.728273
 42
0.120883
  0
VERTEX
  8
0
 10
168.357423
 20
287.999835
 42
0.097178
  0
VERTEX
  8
0
 10
167.147947
 20
290.140178
 42
0.102067
  0
VERTEX
  8
0
 10
165.452485
 20
291.454052
 42
0.113406
  0
VERTEX
  8
0
 10
163.438923
 20
291.925502
 42
0.112244
  0
VERTEX
  8
0
 10
161.405363
 20
291.472030
 42
0.098384
  0
SEQEND
  0
POLYLINE
  8
0
 66
1
 70
1
  0
VERTEX
  8
0
 10
222.200000
 20
290.800000
 42
0.185001
  0
VERTEX
  8
0
 10
220.971980
 20
288.046666
 42
0.131112
  0
VERTEX
  8
0
 10
221.674608
 20
284.702125
 42
0.122832
  0
VERTEX
  8
0
 10
224.011683
 20
281.995444
 42
0.154744
  0
VERTEX
  8
0
 10
227.151078
 20
281.000000
 42
0.124992
  0
VERTEX
  8
0
 10
228.882068
 20
281.439589
 42
0.086020
  0
VERTEX
  8
0
 10
230.477337
 20
282.700875
 42
0.082627
  0
VERTEX
  8
0
 10
231.607582
 20
284.482627
 42
0.100439
  0
VERTEX
  8
0
 10
232.000000
 20
286.416441
 42
0.170027
  0
VERTEX
  8
0
 10
230.990214
 20
289.300081
 42
0.119697
  0
VERTEX
  8
0
 10
228.249750
 20
291.422007
 42
0.122462
  0
VERTEX
  8
0
 10
224.892496
 20
292.022168
 42
0.181604
  0
SEQEND
  0
POLYLINE
  8
0
 66
1
 70
1
  0
VERTEX
  8
0
 10
185.543671
 20
288.655591
 42
0.063238
  0
VERTEX
  8
0
 10
184.711130
 20
287.867970
 42
0.102680
  0
VERTEX
  8
0
 10
184.261269
 20
287.008417
 42
0.090520
  0
VERTEX
  8
0
 10
184.159506
 20
285.962336
 42
0.040605
  0
VERTEX
  8
0
 10
184.386853
 20
284.594792
 42
0.041544
  0
VERTEX
  8
0
 10
184.884015
 20
283.138319
 42
0.152625
  0
VERTEX
  8
0
 10
185.514904
 20
282.411558
 42
0.133958
  0
VERTEX
  8
0
 10
186.499509
 20
282.121322
 42
0.029178
  0
VERTEX
  8
0
 10
188.284312
 20
282.189201
 42
0.033124
  0
VERTEX
  8
0
 10
190.012633
 20
282.472686
 42
0.127114
  0
VERTEX
  8
0
 10
190.970606
 20
282.973454
 42
0.138953
  0
VERTEX
  8
0
 10
191.519110
 20
283.848105
 42
0.042605
  0
VERTEX
  8
0
 10
191.830076
 20
285.391493
 42
0.107625
  0
VERTEX
  8
0
 10
191.567293
 20
287.990586
 42
0.196651
  0
VERTEX
  8
0
 10
190.210346
 20
289.590100
 42
0.184641
  0
VERTEX
  8
0
 10
188.045027
 20
289.837459
 42
0.095273
  0
SEQEND
  0
POLYLINE
  8
0
 66
1
 70
1
  0
VERTEX
  8
0
 10
199.169924
 20
289.126181
 42
0.128667
  0
VERTEX
  8
0
 10
198.672107
 20
288.591664
 42
0.058144
  0
VERTEX
  8
0
 10
198.316320
 20
287.695115
 42
0.050883
  0
VERTEX
  8
0
 10
198.136913
 20
286.583014
 42
0.043008
  0
VERTEX
  8
0
 10
198.169924
 20
285.391493
 42
0.042343
  0
VERTEX
  8
0
 10
198.478038
 20
283.858110
 42
0.136302
  0
VERTEX
  8
0
 10
199.020362
 20
282.981182
 42
0.127745
  0
VERTEX
  8
0
 10
199.960473
 20
282.477462
 42
0.035216
  0
VERTEX
  8
0
 10
201.627974
 20
282.195743
 42
0.031275
  0
VERTEX
  8
0
 10
203.356793
 20
282.136188
 42
0.136832
  0
VERTEX
  8
0
 10
204.324462
 20
282.435598
 42
0.149542
  0
VERTEX
  8
0
 10
204.950253
 20
283.175753
 42
0.039791
  0
VERTEX
  8
0
 10
205.449933
 20
284.656541
 42
0.136292
  0
VERTEX
  8
0
 10
205.385329
 20
287.239199
 42
0.165569
  0
VERTEX
  8
0
 10
203.977995
 20
289.193580
 42
0.164204
  0
VERTEX
  8
0
 10
201.660031
 20
289.892995
 42
0.133930
  0
SEQEND
  0
POLYLINE
  8
0
 66
1
 70
1
  0
VERTEX
  8
0
 10
173.017382
 20
283.520944
 42
0.162803
  0
VERTEX
  8
0
 10
172.216910
 20
281.456832
 42
0.146153
  0
VERTEX
  8
0
 10
172.770984
 20
279.222483
 42
0.140899
  0
VERTEX
  8
0
 10
174.484914
 20
277.601567
 42
0.149135
  0
VERTEX
  8
0
 10
176.758454
 20
277.184393
 42
0.044184
  0
VERTEX
  8
0
 10
178.259234
 20
277.493190
 42
0.165620
  0
VERTEX
  8
0
 10
179.031632
 20
278.044024
 42
0.132202
  0
VERTEX
  8
0
 10
179.404278
 20
279.033563
 42
0.024325
  0
VERTEX
  8
0
 10
179.500000
 20
281.000000
 42
0.024321
  0
VERTEX
  8
0
 10
179.405789
 20
282.935722
 42
0.125689
  0
VERTEX
  8
0
 10
179.043846
 20
283.935551
 42
0.165228
  0
VERTEX
  8
0
 10
178.302352
 20
284.494460
 42
0.050714
  0
VERTEX
  8
0
 10
176.914404
 20
284.800558
 42
0.057273
  0
VERTEX
  8
0
 10
175.814077
 20
284.801991
 42
0.051081
  0
VERTEX
  8
0
 10
174.696896
 20
284.557802
 42
0.053648
  0
VERTEX
  8
0
 10
173.714226
 20
284.113703
 42
0.086822
  0
SEQEND
  0
POLYLINE
  8
0
 66
1
 70
1
  0
VERTEX
  8
0
 10
210.170311
 20
283.250000
 42
0.121046
  0
VERTEX
  8
0
 10
209.641801
 20
281.033927
 42
0.144756
  0
VERTEX
  8
0
 10
210.262103
 20
278.987551
 42
0.138685
  0
VERTEX
  8
0
 10
211.925998
 20
277.547664
 42
0.107687
  0
VERTEX
  8
0
 10
214.271439
 20
277.015313
 42
0.191700
  0
VERTEX
  8
0
 10
215.938040
 20
277.662032
 42
0.105055
  0
VERTEX
  8
0
 10
217.216334
 20
279.481326
 42
0.102267
  0
VERTEX
  8
0
 10
217.665773
 20
281.706238
 42
0.173773
  0
VERTEX
  8
0
 10
217.024577
 20
283.470386
 42
0.129046
  0
VERTEX
  8
0
 10
215.454902
 20
284.594308
 42
0.099544
  0
VERTEX
  8
0
 10
213.370376
 20
284.944178
 42
0.105299
  0
VERTEX
  8
0
 10
211.408833
 20
284.460064
 42
0.162397
  0
SEQEND
  0
POLYLINE
  8
0
 66
1
 70
1
  0
VERTEX
  8
0
 10
147.483670
 20
276.334734
 42
0.023900
  0
VERTEX
  8
0
 10
146.530769
 20
274.716744
 42
0.112707
  0
VERTEX
  8
0
 10
146.255539
 20
273.682091
 42
0.117900
  0
VERTEX
  8
0
 10
146.462990
 20
272.654438
 42
0.027269
  0
VERTEX
  8
0
 10
147.297093
 20
271.084734
 42
0.143001
  0
VERTEX
  8
0
 10
150.018005
 20
268.581451
 42
0.176230
  0
VERTEX
  8
0
 10
153.423369
 20
268.202547
 42
0.183278
  0
VERTEX
  8
0
 10
156.181405
 20
270.091848
 42
0.153096
  0
VERTEX
  8
0
 10
157.250000
 20
273.500000
 42
0.146110
  0
VERTEX
  8
0
 10
156.227358
 20
276.924861
 42
0.178864
  0
VERTEX
  8
0
 10
153.557691
 20
278.897971
 42
0.177296
  0
VERTEX
  8
0
 10
150.227385
 20
278.669648
 42
0.143819
  0
SEQEND
  0
POLYLINE
  8
0
 66
1
 70
1
  0
VERTEX
  8
0
 10
234.500000
 20
278.260519
 42
0.071759
  0
VERTEX
  8
0
 10
232.846046
 20
276.579643
 42
0.115992
  0
VERTEX
  8
0
 10
232.062583
 20
274.742486
 42
0.119126
  0
VERTEX
  8
0
 10
232.190008
 20
272.784411
 42
0.078348
  0
VERTEX
  8
0
 10
233.194146
 20
270.750000
 42
0.063043
  0
VERTEX
  8
0
 10
234.697475
 20
269.106199
 42
0.104302
  0
VERTEX
  8
0
 10
236.344750
 20
268.214331
 42
0.103266
  0
VERTEX
  8
0
 10
238.223931
 20
268.058799
 42
0.060871
  0
VERTEX
  8
0
 10
240.418213
 20
268.606989
 42
0.066536
  0
VERTEX
  8
0
 10
241.022973
 20
268.936809
 42
0.062247
  0
VERTEX
  8
0
 10
241.535350
 20
269.420393
 42
0.066554
  0
VERTEX
  8
0
 10
241.882440
 20
269.977650
 42
0.106435
  0
VERTEX
  8
0
 10
242.000000
 20
270.523655
 42
-0.086916
  0
VERTEX
  8
0
 10
242.093559
 20
271.057806
 42
-0.067948
  0
VERTEX
  8
0
 10
242.367188
 20
271.580232
 42
-0.067685
  0
VERTEX
  8
0
 10
242.772200
 20
272.012090
 42
-0.084733
  0
VERTEX
  8
0
 10
243.250000
 20
272.281389
 42
0.164975
  0
VERTEX
  8
0
 10
243.735014
 20
272.666577
 42
0.176922
  0
VERTEX
  8
0
 10
243.868145
 20
273.255312
 42
0.081879
  0
VERTEX
  8
0
 10
243.594518
 20
274.168181
 42
0.018066
  0
VERTEX
  8
0
 10
242.821567
 20
275.614722
 42
0.101245
  0
VERTEX
  8
0
 10
241.186107
 20
277.447098
 42
0.083312
  0
VERTEX
  8
0
 10
238.849571
 20
278.645989
 42
0.089782
  0
VERTEX
  8
0
 10
236.417155
 20
278.960912
 42
0.151101
  0
SEQEND
  0
POLYLINE
  8
0
 66
1
 70
1
  0
VERTEX
  8
0
 10
129.571429
 20
276.428571
 42
0.088494
  0
VERTEX
  8
0
 10
128.957814
 20
275.548508
 42
0.037646
  0
VERTEX
  8
0
 10
128.453765
 20
274.197454
 42
0.035202
  0
VERTEX
  8
0
 10
128.114006
 20
272.614693
 42
0.035284
  0
VERTEX
  8
0
 10
128.000000
 20
271.001152
 42
0.033556
  0
VERTEX
  8
0
 10
128.133975
 20
269.007087
 42
0.071130
  0
VERTEX
  8
0
 10
128.555203
 20
267.520951
 42
0.076791
  0
VERTEX
  8
0
 10
129.350582
 20
266.284130
 42
0.044905
  0
VERTEX
  8
0
 10
130.634859
 20
265.072580
 42
0.021564
  0
VERTEX
  8
0
 10
131.738156
 20
264.279255
 42
0.023570
  0
VERTEX
  8
0
 10
132.874200
 20
263.608820
 42
0.023887
  0
VERTEX
  8
0
 10
133.892367
 20
263.131663
 42
0.097933
  0
VERTEX
  8
0
 10
134.558133
 20
263.000000
 42
0.156278
  0
VERTEX
  8
0
 10
136.470004
 20
263.612526
 42
0.036423
  0
VERTEX
  8
0
 10
139.095545
 20
265.792352
 42
0.036095
  0
VERTEX
  8
0
 10
141.370775
 20
268.319878
 42
0.166708
  0
VERTEX
  8
0
 10
142.000000
 20
270.154635
 42
0.072471
  0
VERTEX
  8
0
 10
141.730621
 20
272.003419
 42
0.039593
  0
VERTEX
  8
0
 10
140.903464
 20
274.145407
 42
0.039697
  0
VERTEX
  8
0
 10
139.780561
 20
276.075061
 42
0.094201
  0
VERTEX
  8
0
 10
138.600296
 20
277.234687
 42
0.122252
  0
VERTEX
  8
0
 10
136.728200
 20
277.908382
 42
0.047832
  0
VERTEX
  8
0
 10
133.962576
 20
277.926483
 42
0.047812
  0
VERTEX
  8
0
 10
131.254083
 20
277.420746
 42
0.126989
  0
SEQEND
  0
POLYLINE
  8
0
 66
1
 70
1
  0
VERTEX
  8
0
 10
165.238541
 20
277.265539
 42
0.186412
  0
VERTEX
  8
0
 10
163.113144
 20
275.460424
 42
0.163832
  0
VERTEX
  8
0
 10
162.608648
 20
272.579046
 42
0.166800
  0
VERTEX
  8
0
 10
163.949485
 20
270.016098
 42
0.191862
  0
VERTEX
  8
0
 10
166.500000
 20
269.000000
 42
0.128049
  0
VERTEX
  8
0
 10
168.489739
 20
269.518065
 42
0.129915
  0
VERTEX
  8
0
 10
169.961422
 20
270.938867
 42
0.130549
  0
VERTEX
  8
0
 10
170.534561
 20
272.895326
 42
0.129909
  0
VERTEX
  8
0
 10
170.062964
 20
274.882351
 42
0.063905
  0
VERTEX
  8
0
 10
169.098397
 20
276.236220
 42
0.091580
  0
VERTEX
  8
0
 10
167.920575
 20
277.115862
 42
0.101827
  0
VERTEX
  8
0
 10
166.605284
 20
277.459945
 42
0.097409
  0
SEQEND
  0
POLYLINE
  8
0
 66
1
 70
1
  0
VERTEX
  8
0
 10
222.238541
 20
277.333900
 42
0.078026
  0
VERTEX
  8
0
 10
221.679343
 20
276.999676
 42
0.031770
  0
VERTEX
  8
0
 10
221.033838
 20
276.388644
 42
0.030474
  0
VERTEX
  8
0
 10
220.410605
 20
275.631019
 42
0.034026
  0
VERTEX
  8
0
 10
219.908837
 20
274.829660
 42
0.053510
  0
VERTEX
  8
0
 10
219.471978
 20
273.749971
 42
0.112031
  0
VERTEX
  8
0
 10
219.422950
 20
272.850085
 42
0.102273
  0
VERTEX
  8
0
 10
219.769148
 20
271.964190
 42
0.039817
  0
VERTEX
  8
0
 10
220.575283
 20
270.916813
 42
0.073230
  0
VERTEX
  8
0
 10
222.243708
 20
269.542510
 42
0.138351
  0
VERTEX
  8
0
 10
223.911586
 20
269.084718
 42
0.154343
  0
VERTEX
  8
0
 10
225.447124
 20
269.582266
 42
0.098550
  0
VERTEX
  8
0
 10
226.743239
 20
270.960467
 42
0.098531
  0
VERTEX
  8
0
 10
227.354569
 20
272.575683
 42
0.087673
  0
VERTEX
  8
0
 10
227.337479
 20
274.373273
 42
0.089311
  0
VERTEX
  8
0
 10
226.709906
 20
276.027729
 42
0.107835
  0
VERTEX
  8
0
 10
225.572942
 20
277.234687
 42
0.035808
  0
VERTEX
  8
0
 10
224.758512
 20
277.710592
 42
0.107283
  0
VERTEX
  8
0
 10
224.136340
 20
277.865153
 42
0.085642
  0
VERTEX
  8
0
 10
223.427208
 20
277.764410
 42
0.017750
  0
SEQEND
  0
POLYLINE
  8
0
 66
1
 70
1
  0
VERTEX
  8
0
 10
249.899217
 20
275.144745
 42
0.068652
  0
VERTEX
  8
0
 10
248.260345
 20
272.343972
 42
0.177381
  0
VERTEX
  8
0
 10
248.165277
 20
270.039524
 42
0.120135
  0
VERTEX
  8
0
 10
249.639283
 20
267.629974
 42
0.024350
  0
VERTEX
  8
0
 10
253.388304
 20
264.247958
 42
0.081889
  0
VERTEX
  8
0
 10
254.324130
 20
263.709809
 42
0.120055
  0
VERTEX
  8
0
 10
255.262851
 20
263.597102
 42
0.077763
  0
VERTEX
  8
0
 10
256.433766
 20
263.927079
 42
0.019481
  0
VERTEX
  8
0
 10
258.209980
 20
264.826782
 42
0.035903
  0
VERTEX
  8
0
 10
259.907829
 20
265.938162
 42
0.087048
  0
VERTEX
  8
0
 10
260.921039
 20
267.035030
 42
0.086793
  0
VERTEX
  8
0
 10
261.502094
 20
268.413340
 42
0.035543
  0
VERTEX
  8
0
 10
261.816213
 20
270.426919
 42
0.067764
  0
VERTEX
  8
0
 10
261.649381
 20
273.655721
 42
0.120377
  0
VERTEX
  8
0
 10
260.553573
 20
276.067019
 42
0.175883
  0
VERTEX
  8
0
 10
258.797383
 20
277.159380
 42
0.176715
  0
VERTEX
  8
0
 10
256.753456
 20
276.868054
 42
-0.014648
  0
VERTEX
  8
0
 10
255.876523
 20
276.431279
 42
-0.103329
  0
VERTEX
  8
0
 10
255.414815
 20
276.324692
 42
-0.452774
  0
VERTEX
  8
0
 10
255.275966
 20
276.476320
 42
-0.111633
  0
VERTEX
  8
0
 10
255.400936
 20
276.839711
 42
0.462884
  0
VERTEX
  8
0
 10
255.149080
 20
277.616697
 42
0.174015
  0
VERTEX
  8
0
 10
253.837813
 20
277.676698
 42
0.064547
  0
VERTEX
  8
0
 10
251.573049
 20
276.644141
 42
0.087118
  0
SEQEND
  0
POLYLINE
  8
0
 66
1
 70
1
  0
VERTEX
  8
0
 10
158.308337
 20
265.755202
 42
0.070697
  0
VERTEX
  8
0
 10
156.604410
 20
264.656960
 42
0.122035
  0
VERTEX
  8
0
 10
155.637774
 20
263.286345
 42
0.130181
  0
VERTEX
  8
0
 10
155.457308
 20
261.688573
 42
0.086455
  0
VERTEX
  8
0
 10
156.038770
 20
259.927558
 42
0.143120
  0
VERTEX
  8
0
 10
157.270805
 20
258.671406
 42
0.101240
  0
VERTEX
  8
0
 10
159.164112
 20
258.067040
 42
0.098262
  0
VERTEX
  8
0
 10
161.192730
 20
258.247453
 42
0.125859
  0
VERTEX
  8
0
 10
162.800000
 20
259.200000
 42
0.181445
  0
VERTEX
  8
0
 10
163.911436
 20
261.646543
 42
0.168611
  0
VERTEX
  8
0
 10
163.183858
 20
264.310172
 42
0.170061
  0
VERTEX
  8
0
 10
160.969796
 20
265.935251
 42
0.183943
  0
SEQEND
  0
POLYLINE
  8
0
 66
1
 70
1
  0
VERTEX
  8
0
 10
227.750000
 20
265.106679
 42
0.114649
  0
VERTEX
  8
0
 10
226.321316
 20
262.777265
 42
0.169422
  0
VERTEX
  8
0
 10
226.354097
 20
260.401882
 42
0.179252
  0
VERTEX
  8
0
 10
227.838447
 20
258.654522
 42
0.128670
  0
VERTEX
  8
0
 10
230.339757
 20
258.000000
 42
0.126916
  0
VERTEX
  8
0
 10
231.745501
 20
258.362663
 42
0.058379
  0
VERTEX
  8
0
 10
233.293858
 20
259.471766
 42
0.058641
  0
VERTEX
  8
0
 10
234.529405
 20
260.893534
 42
0.139287
  0
VERTEX
  8
0
 10
234.968197
 20
262.211045
 42
0.200585
  0
VERTEX
  8
0
 10
234.654810
 20
263.066335
 42
0.014164
  0
VERTEX
  8
0
 10
232.835241
 20
264.922428
 42
0.013974
  0
VERTEX
  8
0
 10
230.912648
 20
266.674620
 42
0.207029
  0
VERTEX
  8
0
 10
230.061439
 20
266.940567
 42
0.127013
  0
VERTEX
  8
0
 10
229.749635
 20
266.823865
 42
0.014974
  0
VERTEX
  8
0
 10
229.150860
 20
266.377346
 42
0.017146
  0
VERTEX
  8
0
 10
228.461201
 20
265.790547
 42
0.013265
  0
SEQEND
  0
POLYLINE
  8
0
 66
1
 70
1
  0
VERTEX
  8
0
 10
142.277679
 20
261.750000
 42
0.054700
  0
VERTEX
  8
0
 10
141.105142
 20
259.834315
 42
0.105184
  0
VERTEX
  8
0
 10
140.695965
 20
258.089592
 42
0.109554
  0
VERTEX
  8
0
 10
141.038522
 20
256.377518
 42
0.062783
  0
VERTEX
  8
0
 10
142.128456
 20
254.563824
 42
0.173097
  0
VERTEX
  8
0
 10
145.768881
 20
252.273941
 42
0.216554
  0
VERTEX
  8
0
 10
149.633012
 20
253.088823
 42
0.201530
  0
VERTEX
  8
0
 10
151.749932
 20
256.630791
 42
0.159422
  0
VERTEX
  8
0
 10
150.964816
 20
261.065741
 42
0.179775
  0
VERTEX
  8
0
 10
149.465054
 20
262.390847
 42
0.072450
  0
VERTEX
  8
0
 10
146.758419
 20
263.005350
 42
0.072336
  0
VERTEX
  8
0
 10
143.983537
 20
262.822452
 42
0.177329
  0
SEQEND
  0
POLYLINE
  8
0
 66
1
 70
1
  0
VERTEX
  8
0
 10
242.500000
 20
262.276390
 42
0.084314
  0
VERTEX
  8
0
 10
239.559807
 20
261.001094
 42
0.188077
  0
VERTEX
  8
0
 10
238.163203
 20
259.051013
 42
0.186257
  0
VERTEX
  8
0
 10
238.448658
 20
256.655502
 42
0.082615
  0
VERTEX
  8
0
 10
240.410789
 20
254.083809
 42
0.073015
  0
VERTEX
  8
0
 10
242.511869
 20
252.620271
 42
0.140241
  0
VERTEX
  8
0
 10
244.513951
 20
252.247716
 42
0.161478
  0
VERTEX
  8
0
 10
246.219309
 20
252.998828
 42
0.105724
  0
VERTEX
  8
0
 10
247.487128
 20
254.755842
 42
-0.024964
  0
VERTEX
  8
0
 10
247.917525
 20
255.615209
 42
-0.033777
  0
VERTEX
  8
0
 10
248.394719
 20
256.340779
 42
-0.035832
  0
VERTEX
  8
0
 10
248.851958
 20
256.861140
 42
-0.197053
  0
VERTEX
  8
0
 10
249.190618
 20
257.000000
 42
0.456944
  0
VERTEX
  8
0
 10
249.357661
 20
257.192945
 42
0.043741
  0
VERTEX
  8
0
 10
249.196148
 20
257.879393
 42
0.032654
  0
VERTEX
  8
0
 10
248.806284
 20
258.844831
 42
0.017065
  0
VERTEX
  8
0
 10
248.203490
 20
259.993677
 42
0.026466
  0
VERTEX
  8
0
 10
247.003542
 20
261.864708
 42
0.142685
  0
VERTEX
  8
0
 10
246.061847
 20
262.601864
 42
0.133944
  0
VERTEX
  8
0
 10
244.840445
 20
262.742208
 42
0.022285
  0
SEQEND
  0
POLYLINE
  8
0
 66
1
 70
1
  0
VERTEX
  8
0
 10
126.323326
 20
254.750000
 42
0.037836
  0
VERTEX
  8
0
 10
124.576569
 20
252.486517
 42
0.083811
  0
VERTEX
  8
0
 10
123.701388
 20
250.496818
 42
0.092326
  0
VERTEX
  8
0
 10
123.572605
 20
248.456181
 42
0.053633
  0
VERTEX
  8
0
 10
124.129966
 20
246.057024
 42
0.047726
  0
VERTEX
  8
0
 10
124.811108
 20
244.574991
 42
0.088347
  0
VERTEX
  8
0
 10
125.664310
 20
243.567002
 42
0.085149
  0
VERTEX
  8
0
 10
126.835941
 20
242.892670
 42
0.041752
  0
VERTEX
  8
0
 10
128.500830
 20
242.433866
 42
0.047349
  0
VERTEX
  8
0
 10
131.621992
 20
242.149624
 42
0.096456
  0
VERTEX
  8
0
 10
134.027093
 20
242.627466
 42
0.108668
  0
VERTEX
  8
0
 10
135.893643
 20
243.917994
 42
0.071783
  0
VERTEX
  8
0
 10
137.384778
 20
246.069486
 42
0.026812
  0
VERTEX
  8
0
 10
138.110505
 20
247.743231
 42
0.081714
  0
VERTEX
  8
0
 10
138.346703
 20
248.955362
 42
0.090064
  0
VERTEX
  8
0
 10
138.171620
 20
250.111785
 42
0.037186
  0
VERTEX
  8
0
 10
137.546535
 20
251.572943
 42
0.076590
  0
VERTEX
  8
0
 10
135.106454
 20
254.909325
 42
0.128346
  0
VERTEX
  8
0
 10
132.128924
 20
256.658542
 42
0.153750
  0
VERTEX
  8
0
 10
129.062656
 20
256.568832
 42
0.126556
  0
SEQEND
  0
POLYLINE
  8
0
 66
1
 70
1
  0
VERTEX
  8
0
 10
254.861614
 20
255.037337
 42
0.126362
  0
VERTEX
  8
0
 10
253.384843
 20
253.502676
 42
0.089493
  0
VERTEX
  8
0
 10
252.592423
 20
251.235713
 42
0.081248
  0
VERTEX
  8
0
 10
252.603844
 20
248.625308
 42
0.077840
  0
VERTEX
  8
0
 10
253.441797
 20
246.112552
 42
0.093031
  0
VERTEX
  8
0
 10
255.704121
 20
243.214239
 42
0.158385
  0
VERTEX
  8
0
 10
258.498396
 20
242.005306
 42
0.154884
  0
VERTEX
  8
0
 10
261.516007
 20
242.658452
 42
0.087928
  0
VERTEX
  8
0
 10
264.410949
 20
245.076538
 42
0.072275
  0
VERTEX
  8
0
 10
265.861058
 20
247.414320
 42
0.087269
  0
VERTEX
  8
0
 10
266.466280
 20
249.922080
 42
0.095062
  0
VERTEX
  8
0
 10
266.161219
 20
252.314273
 42
0.105119
  0
VERTEX
  8
0
 10
264.991976
 20
254.328916
 42
0.164817
  0
VERTEX
  8
0
 10
263.477323
 20
255.173702
 42
0.028071
  0
VERTEX
  8
0
 10
260.153480
 20
255.594546
 42
0.029633
  0
VERTEX
  8
0
 10
256.771998
 20
255.630285
 42
0.126810
  0
SEQEND
  0
POLYLINE
  8
0
 66
1
 70
1
  0
VERTEX
  8
0
 10
257.500000
 20
252.000000
 42
-0.082592
  0
VERTEX
  8
0
 10
257.656512
 20
251.617900
 42
-0.161196
  0
VERTEX
  8
0
 10
257.625400
 20
251.293750
 42
-0.182303
  0
VERTEX
  8
0
 10
257.413961
 20
251.078288
 42
-0.108972
  0
VERTEX
  8
0
 10
257.059017
 20
251.000000
 42
-0.093332
  0
VERTEX
  8
0
 10
256.654762
 20
251.076123
 42
-0.096420
  0
VERTEX
  8
0
 10
256.311086
 20
251.293750
 42
-0.099167
  0
VERTEX
  8
0
 10
256.081062
 20
251.618444
 42
-0.105053
  0
VERTEX
  8
0
 10
256.000000
 20
252.000000
 42
-0.042167
  0
VERTEX
  8
0
 10
256.032345
 20
252.382849
 42
-0.061769
  0
VERTEX
  8
0
 10
256.129539
 20
252.706250
 42
-0.081139
  0
VERTEX
  8
0
 10
256.272352
 20
252.925540
 42
-0.210953
  0
VERTEX
  8
0
 10
256.440983
 20
253.000000
 42
-0.151918
  0
VERTEX
  8
0
 10
256.651710
 20
252.934461
 42
-0.038439
  0
VERTEX
  8
0
 10
256.933975
 20
252.706250
 42
-0.035638
  0
VERTEX
  8
0
 10
257.231006
 20
252.382774
 42
-0.029505
  0
SEQEND
  0
POLYLINE
  8
0
 66
1
 70
1
  0
VERTEX
  8
0
 10
230.427058
 20
253.234687
 42
0.107131
  0
VERTEX
  8
0
 10
229.308112
 20
252.050162
 42
0.080594
  0
VERTEX
  8
0
 10
228.637069
 20
250.382917
 42
0.084862
  0
VERTEX
  8
0
 10
228.547352
 20
248.675297
 42
0.144978
  0
VERTEX
  8
0
 10
229.105192
 20
247.373252
 42
0.150649
  0
VERTEX
  8
0
 10
230.665788
 20
246.352976
 42
0.074497
  0
VERTEX
  8
0
 10
233.036025
 20
246.040074
 42
0.078743
  0
VERTEX
  8
0
 10
235.255657
 20
246.431670
 42
0.221678
  0
VERTEX
  8
0
 10
236.361626
 20
247.500000
 42
0.130178
  0
VERTEX
  8
0
 10
236.585051
 20
249.570218
 42
0.096990
  0
VERTEX
  8
0
 10
235.805146
 20
251.741982
 42
0.101487
  0
VERTEX
  8
0
 10
234.305508
 20
253.382958
 42
0.158326
  0
VERTEX
  8
0
 10
232.500000
 20
253.969374
 42
0.056643
  0
VERTEX
  8
0
 10
232.039907
 20
253.917084
 42
0.028576
  0
VERTEX
  8
0
 10
231.478573
 20
253.753560
 42
0.027957
  0
VERTEX
  8
0
 10
230.911135
 20
253.515985
 42
0.037019
  0
SEQEND
  0
POLYLINE
  8
0
 66
1
 70
1
  0
VERTEX
  8
0
 10
143.394979
 20
245.227764
 42
0.047675
  0
VERTEX
  8
0
 10
141.738269
 20
243.580421
 42
0.094049
  0
VERTEX
  8
0
 10
140.842985
 20
241.962472
 42
0.103007
  0
VERTEX
  8
0
 10
140.647237
 20
240.230921
 42
0.065888
  0
VERTEX
  8
0
 10
141.099177
 20
238.250000
 42
0.072096
  0
VERTEX
  8
0
 10
141.710661
 20
237.130253
 42
0.120051
  0
VERTEX
  8
0
 10
142.536510
 20
236.451344
 42
0.087146
  0
VERTEX
  8
0
 10
143.776999
 20
236.101012
 42
0.025354
  0
VERTEX
  8
0
 10
145.767776
 20
236.000000
 42
0.046685
  0
VERTEX
  8
0
 10
148.610059
 20
236.265964
 42
0.114382
  0
VERTEX
  8
0
 10
150.520706
 20
237.106355
 42
0.142647
  0
VERTEX
  8
0
 10
151.615851
 20
238.561201
 42
0.090718
  0
VERTEX
  8
0
 10
152.000000
 20
240.661045
 42
0.126998
  0
VERTEX
  8
0
 10
151.518817
 20
242.524937
 42
0.051432
  0
VERTEX
  8
0
 10
150.008359
 20
244.695021
 42
0.051340
  0
VERTEX
  8
0
 10
148.142354
 20
246.459265
 42
0.170558
  0
VERTEX
  8
0
 10
146.561439
 20
246.977764
 42
0.097171
  0
VERTEX
  8
0
 10
146.016732
 20
246.858997
 42
0.024124
  0
VERTEX
  8
0
 10
145.193448
 20
246.454529
 42
0.023754
  0
VERTEX
  8
0
 10
144.278780
 20
245.890732
 42
0.021853
  0
SEQEND
  0
POLYLINE
  8
0
 66
1
 70
1
  0
VERTEX
  8
0
 10
240.750682
 20
245.310806
 42
0.171477
  0
VERTEX
  8
0
 10
239.347288
 20
244.360373
 42
0.098161
  0
VERTEX
  8
0
 10
238.465627
 20
242.488414
 42
0.087138
  0
VERTEX
  8
0
 10
238.303893
 20
240.202475
 42
0.097354
  0
VERTEX
  8
0
 10
238.950153
 20
238.093141
 42
0.075453
  0
VERTEX
  8
0
 10
239.672040
 20
237.127644
 42
0.088210
  0
VERTEX
  8
0
 10
240.613948
 20
236.480212
 42
0.072369
  0
VERTEX
  8
0
 10
241.872238
 20
236.116008
 42
0.034328
  0
VERTEX
  8
0
 10
243.559935
 20
236.000000
 42
0.031395
  0
VERTEX
  8
0
 10
245.408841
 20
236.116207
 42
0.101604
  0
VERTEX
  8
0
 10
246.567481
 20
236.510548
 42
0.118726
  0
VERTEX
  8
0
 10
247.375380
 20
237.289110
 42
0.051100
  0
VERTEX
  8
0
 10
248.051319
 20
238.634979
 42
0.041690
  0
VERTEX
  8
0
 10
248.453042
 20
240.032067
 42
0.076595
  0
VERTEX
  8
0
 10
248.504713
 20
241.211932
 42
0.076470
  0
VERTEX
  8
0
 10
248.198759
 20
242.353910
 42
0.041431
  0
VERTEX
  8
0
 10
247.503515
 20
243.634979
 42
0.069448
  0
VERTEX
  8
0
 10
246.309968
 20
244.999353
 42
0.118083
  0
VERTEX
  8
0
 10
244.971000
 20
245.693596
 42
0.093129
  0
VERTEX
  8
0
 10
243.235223
 20
245.793565
 42
0.031872
  0
SEQEND
  0
POLYLINE
  8
0
 66
1
 70
1
  0
VERTEX
  8
0
 10
105.484203
 20
240.798857
 42
0.028392
  0
VERTEX
  8
0
 10
104.095641
 20
238.944495
 42
0.074401
  0
VERTEX
  8
0
 10
103.392895
 20
237.441808
 42
0.075639
  0
VERTEX
  8
0
 10
103.166956
 20
235.814079
 42
0.030076
  0
VERTEX
  8
0
 10
103.332315
 20
233.559077
 42
0.071183
  0
VERTEX
  8
0
 10
104.293073
 20
230.159888
 42
0.118543
  0
VERTEX
  8
0
 10
106.092961
 20
227.809708
 42
0.111904
  0
VERTEX
  8
0
 10
108.847668
 20
226.450507
 42
0.058938
  0
VERTEX
  8
0
 10
112.656239
 20
226.000000
 42
0.075057
  0
VERTEX
  8
0
 10
116.548615
 20
226.587608
 42
0.112265
  0
VERTEX
  8
0
 10
119.516026
 20
228.299497
 42
0.117958
  0
VERTEX
  8
0
 10
121.356101
 20
231.052977
 42
0.088803
  0
VERTEX
  8
0
 10
122.000000
 20
234.649827
 42
0.093214
  0
VERTEX
  8
0
 10
121.300470
 20
238.369501
 42
0.107083
  0
VERTEX
  8
0
 10
119.307717
 20
241.377288
 42
0.105510
  0
VERTEX
  8
0
 10
116.221588
 20
243.321034
 42
0.088184
  0
VERTEX
  8
0
 10
112.401802
 20
244.000000
 42
0.030203
  0
VERTEX
  8
0
 10
110.075218
 20
243.859332
 42
0.078318
  0
VERTEX
  8
0
 10
108.464106
 20
243.401118
 42
0.078796
  0
VERTEX
  8
0
 10
107.077730
 20
242.471503
 42
0.030846
  0
SEQEND
  0
POLYLINE
  8
0
 66
1
 70
1
  0
VERTEX
  8
0
 10
227.666667
 20
239.333333
 42
0.161711
  0
VERTEX
  8
0
 10
227.093791
 20
238.190740
 42
0.057775
  0
VERTEX
  8
0
 10
227.040812
 20
236.344277
 42
0.057074
  0
VERTEX
  8
0
 10
227.422753
 20
234.467459
 42
0.118199
  0
VERTEX
  8
0
 10
228.200000
 20
233.200000
 42
0.060358
  0
VERTEX
  8
0
 10
229.358934
 20
232.291546
 42
0.186465
  0
VERTEX
  8
0
 10
230.321602
 20
232.120780
 42
0.132436
  0
VERTEX
  8
0
 10
231.364759
 20
232.633038
 42
0.025245
  0
VERTEX
  8
0
 10
232.895618
 20
234.118334
 42
0.030274
  0
VERTEX
  8
0
 10
233.869762
 20
235.299851
 42
0.108410
  0
VERTEX
  8
0
 10
234.260209
 20
236.190897
 42
0.133367
  0
VERTEX
  8
0
 10
234.201067
 20
237.057290
 42
0.056289
  0
VERTEX
  8
0
 10
233.694026
 20
238.118334
 42
0.123572
  0
VERTEX
  8
0
 10
232.520254
 20
239.248902
 42
0.080634
  0
VERTEX
  8
0
 10
230.751188
 20
239.914448
 42
0.084392
  0
VERTEX
  8
0
 10
228.945633
 20
239.969589
 42
0.163315
  0
SEQEND
  0
POLYLINE
  8
0
 66
1
 70
1
  0
VERTEX
  8
0
 10
131.000000
 20
233.735577
 42
0.063062
  0
VERTEX
  8
0
 10
129.725165
 20
232.863057
 42
0.099905
  0
VERTEX
  8
0
 10
128.931571
 20
231.809325
 42
0.073597
  0
VERTEX
  8
0
 10
128.465280
 20
230.298843
 42
0.021817
  0
VERTEX
  8
0
 10
128.201842
 20
227.888569
 42
0.049174
  0
VERTEX
  8
0
 10
128.317173
 20
224.398099
 42
0.153527
  0
VERTEX
  8
0
 10
129.298171
 20
222.292368
 42
0.156855
  0
VERTEX
  8
0
 10
131.291835
 20
221.153589
 42
0.051996
  0
VERTEX
  8
0
 10
134.682772
 20
220.800000
 42
0.125970
  0
VERTEX
  8
0
 10
138.650616
 20
221.815781
 42
0.151833
  0
VERTEX
  8
0
 10
141.313326
 20
224.571746
 42
0.157383
  0
VERTEX
  8
0
 10
141.889807
 20
228.270356
 42
0.137018
  0
VERTEX
  8
0
 10
140.250000
 20
231.846575
 42
0.083372
  0
VERTEX
  8
0
 10
138.306671
 20
233.490647
 42
0.083787
  0
VERTEX
  8
0
 10
135.936209
 20
234.406327
 42
0.084161
  0
VERTEX
  8
0
 10
133.405782
 20
234.491178
 42
0.085162
  0
SEQEND
  0
POLYLINE
  8
0
 66
1
 70
1
  0
VERTEX
  8
0
 10
234.200000
 20
228.800000
 42
0.082665
  0
VERTEX
  8
0
 10
233.739331
 20
228.155329
 42
0.037420
  0
VERTEX
  8
0
 10
233.352500
 20
227.188750
 42
0.035729
  0
VERTEX
  8
0
 10
233.088514
 20
226.083486
 42
0.040779
  0
VERTEX
  8
0
 10
233.000000
 20
225.000000
 42
0.074342
  0
VERTEX
  8
0
 10
233.328585
 20
222.802261
 42
0.128255
  0
VERTEX
  8
0
 10
234.292196
 20
221.237395
 42
0.124253
  0
VERTEX
  8
0
 10
235.922781
 20
220.311351
 42
0.067417
  0
VERTEX
  8
0
 10
238.221439
 20
220.000000
 42
0.132215
  0
VERTEX
  8
0
 10
240.570650
 20
220.632255
 42
0.140702
  0
VERTEX
  8
0
 10
242.219355
 20
222.348196
 42
0.128260
  0
VERTEX
  8
0
 10
242.799019
 20
224.815851
 42
0.101123
  0
VERTEX
  8
0
 10
242.181954
 20
227.500000
 42
0.142103
  0
VERTEX
  8
0
 10
240.778180
 20
229.133713
 42
0.104677
  0
VERTEX
  8
0
 10
238.541914
 20
230.001192
 42
0.103278
  0
VERTEX
  8
0
 10
236.119863
 20
229.893640
 42
0.134603
  0
SEQEND
  0
POLYLINE
  8
0
 66
1
 70
1
  0
VERTEX
  8
0
 10
219.747393
 20
227.142033
 42
0.101293
  0
VERTEX
  8
0
 10
219.643514
 20
225.215955
 42
0.121194
  0
VERTEX
  8
0
 10
220.331190
 20
223.539324
 42
0.124796
  0
VERTEX
  8
0
 10
221.698057
 20
222.406488
 42
0.111392
  0
VERTEX
  8
0
 10
223.500000
 20
222.000000
 42
0.111392
  0
VERTEX
  8
0
 10
225.301943
 20
222.406488
 42
0.124796
  0
VERTEX
  8
0
 10
226.668810
 20
223.539324
 42
0.121194
  0
VERTEX
  8
0
 10
227.356486
 20
225.215955
 42
0.101293
  0
VERTEX
  8
0
 10
227.252607
 20
227.142033
 42
0.101785
  0
VERTEX
  8
0
 10
226.832819
 20
227.992205
 42
0.112862
  0
VERTEX
  8
0
 10
226.124086
 20
228.570629
 42
0.082354
  0
VERTEX
  8
0
 10
225.046582
 20
228.898510
 42
0.032776
  0
VERTEX
  8
0
 10
223.500000
 20
229.000000
 42
0.032776
  0
VERTEX
  8
0
 10
221.953418
 20
228.898510
 42
0.082354
  0
VERTEX
  8
0
 10
220.875914
 20
228.570629
 42
0.112862
  0
VERTEX
  8
0
 10
220.167181
 20
227.992205
 42
0.101785
  0
SEQEND
  0
POLYLINE
  8
0
 66
1
 70
1
  0
VERTEX
  8
0
 10
210.666667
 20
220.333333
 42
0.161711
  0
VERTEX
  8
0
 10
210.093791
 20
219.190740
 42
0.057775
  0
VERTEX
  8
0
 10
210.040812
 20
217.344277
 42
0.057074
  0
VERTEX
  8
0
 10
210.422753
 20
215.467459
 42
0.118199
  0
VERTEX
  8
0
 10
211.200000
 20
214.200000
 42
0.189269
  0
VERTEX
  8
0
 10
213.561216
 20
213.170130
 42
0.185047
  0
VERTEX
  8
0
 10
216.020065
 20
214.008999
 42
0.173244
  0
VERTEX
  8
0
 10
217.395223
 20
216.340070
 42
0.171990
  0
VERTEX
  8
0
 10
216.987674
 20
219.023032
 42
0.140485
  0
VERTEX
  8
0
 10
215.844676
 20
220.200510
 42
0.079345
  0
VERTEX
  8
0
 10
213.970150
 20
220.911991
 42
0.081506
  0
VERTEX
  8
0
 10
212.022102
 20
220.993361
 42
0.167668
  0
SEQEND
  0
POLYLINE
  8
0
 66
1
 70
1
  0
VERTEX
  8
0
 10
116.526536
 20
214.726536
 42
0.051247
  0
VERTEX
  8
0
 10
114.282082
 20
211.967948
 42
0.092147
  0
VERTEX
  8
0
 10
113.158216
 20
209.285960
 42
0.102016
  0
VERTEX
  8
0
 10
113.131868
 20
206.572160
 42
0.074582
  0
VERTEX
  8
0
 10
114.146821
 20
203.725663
 42
0.096560
  0
VERTEX
  8
0
 10
117.166638
 20
200.021120
 42
0.127890
  0
VERTEX
  8
0
 10
121.087333
 20
198.175555
 42
0.133642
  0
VERTEX
  8
0
 10
125.279332
 20
198.512284
 42
0.110328
  0
VERTEX
  8
0
 10
129.076923
 20
200.923077
 42
0.133173
  0
VERTEX
  8
0
 10
131.792407
 20
205.659062
 42
0.141563
  0
VERTEX
  8
0
 10
131.656552
 20
210.999298
 42
0.142602
  0
VERTEX
  8
0
 10
128.699170
 20
215.416382
 42
0.135735
  0
VERTEX
  8
0
 10
123.776536
 20
217.660297
 42
0.036166
  0
VERTEX
  8
0
 10
121.595015
 20
217.847436
 42
0.099776
  0
VERTEX
  8
0
 10
120.086011
 20
217.564073
 42
0.081478
  0
VERTEX
  8
0
 10
118.632018
 20
216.678392
 42
0.018925
  0
SEQEND
  0
POLYLINE
  8
0
 66
1
 70
1
  0
VERTEX
  8
0
 10
140.750000
 20
213.919901
 42
0.203085
  0
VERTEX
  8
0
 10
139.489661
 20
212.236510
 42
0.049000
  0
VERTEX
  8
0
 10
138.978965
 20
208.715070
 42
0.049154
  0
VERTEX
  8
0
 10
139.165929
 20
205.131770
 42
0.183962
  0
VERTEX
  8
0
 10
140.255594
 20
203.202839
 42
0.120403
  0
VERTEX
  8
0
 10
143.615705
 20
201.566973
 42
0.115884
  0
VERTEX
  8
0
 10
147.402602
 20
201.632571
 42
0.113358
  0
VERTEX
  8
0
 10
150.827982
 20
203.389006
 42
0.111383
  0
VERTEX
  8
0
 10
153.169990
 20
206.473742
 42
0.055040
  0
VERTEX
  8
0
 10
153.615266
 20
207.828480
 42
0.102672
  0
VERTEX
  8
0
 10
153.618673
 20
208.978710
 42
0.080352
  0
VERTEX
  8
0
 10
153.149487
 20
210.217596
 42
0.024103
  0
VERTEX
  8
0
 10
152.056358
 20
211.920852
 42
0.034544
  0
VERTEX
  8
0
 10
150.765733
 20
213.491517
 42
0.083992
  0
VERTEX
  8
0
 10
149.572465
 20
214.391712
 42
0.085389
  0
VERTEX
  8
0
 10
148.161967
 20
214.840974
 42
0.036578
  0
VERTEX
  8
0
 10
146.181906
 20
214.969591
 42
0.023994
  0
VERTEX
  8
0
 10
144.643887
 20
214.883006
 42
0.021673
  0
VERTEX
  8
0
 10
143.067497
 20
214.648701
 42
0.022250
  0
VERTEX
  8
0
 10
141.673789
 20
214.314448
 42
0.061963
  0
SEQEND
  0
POLYLINE
  8
0
 66
1
 70
1
  0
VERTEX
  8
0
 10
135.222506
 20
193.443296
 42
0.039673
  0
VERTEX
  8
0
 10
134.372128
 20
192.740993
 42
0.040914
  0
VERTEX
  8
0
 10
133.652861
 20
191.919906
 42
0.044350
  0
VERTEX
  8
0
 10
133.155452
 20
191.106729
 42
0.115592
  0
VERTEX
  8
0
 10
133.000000
 20
190.443296
 42
-0.067526
  0
VERTEX
  8
0
 10
132.925152
 20
189.891607
 42
-0.084255
  0
VERTEX
  8
0
 10
132.706250
 20
189.423968
 42
-0.099624
  0
VERTEX
  8
0
 10
132.381341
 20
189.111246
 42
-0.142884
  0
VERTEX
  8
0
 10
132.000000
 20
189.000000
 42
0.351441
  0
VERTEX
  8
0
 10
131.149765
 20
188.318172
 42
0.101692
  0
VERTEX
  8
0
 10
131.120385
 20
186.513315
 42
0.059512
  0
VERTEX
  8
0
 10
131.947501
 20
183.888761
 42
0.034744
  0
VERTEX
  8
0
 10
133.512545
 20
180.980128
 42
0.021972
  0
VERTEX
  8
0
 10
135.138640
 20
178.638780
 42
0.105741
  0
VERTEX
  8
0
 10
136.363155
 20
177.588134
 42
0.104045
  0
VERTEX
  8
0
 10
137.919993
 20
177.121719
 42
0.020937
  0
VERTEX
  8
0
 10
140.825453
 20
177.000000
 42
0.023746
  0
VERTEX
  8
0
 10
143.435870
 20
177.124045
 42
0.065956
  0
VERTEX
  8
0
 10
145.221950
 20
177.536010
 42
0.074826
  0
VERTEX
  8
0
 10
146.708639
 20
178.363283
 42
0.037431
  0
VERTEX
  8
0
 10
148.312909
 20
179.804719
 42
0.081108
  0
VERTEX
  8
0
 10
150.270519
 20
182.653173
 42
0.108461
  0
VERTEX
  8
0
 10
150.965678
 20
185.701943
 42
0.105069
  0
VERTEX
  8
0
 10
150.326577
 20
188.834332
 42
0.072343
  0
VERTEX
  8
0
 10
148.411106
 20
191.923275
 42
0.033180
  0
VERTEX
  8
0
 10
146.884341
 20
193.510954
 42
0.078278
  0
VERTEX
  8
0
 10
145.516407
 20
194.411843
 42
0.076329
  0
VERTEX
  8
0
 10
143.916124
 20
194.861258
 42
0.030364
  0
VERTEX
  8
0
 10
141.633613
 20
195.000000
 42
0.032355
  0
VERTEX
  8
0
 10
139.866908
 20
194.885558
 42
0.027214
  0
VERTEX
  8
0
 10
138.022553
 20
194.542718
 42
0.028097
  0
VERTEX
  8
0
 10
136.369252
 20
194.041452
 42
0.065205
  0
SEQEND
  0
POLYLINE
  8
0
 66
1
 70
1
  0
VERTEX
  8
0
 10
161.878954
 20
180.225764
 42
0.047395
  0
VERTEX
  8
0
 10
160.748684
 20
179.383553
 42
0.025255
  0
VERTEX
  8
0
 10
159.514770
 20
178.149135
 42
0.024907
  0
VERTEX
  8
0
 10
158.371494
 20
176.749402
 42
0.035287
  0
VERTEX
  8
0
 10
157.511286
 20
175.391099
 42
0.023491
  0
VERTEX
  8
0
 10
156.527956
 20
173.339893
 42
0.104548
  0
VERTEX
  8
0
 10
156.274840
 20
172.035825
 42
0.089647
  0
VERTEX
  8
0
 10
156.550623
 20
170.642753
 42
0.014773
  0
VERTEX
  8
0
 10
157.632332
 20
168.111135
 42
0.105789
  0
VERTEX
  8
0
 10
160.562367
 20
164.209593
 42
0.128781
  0
VERTEX
  8
0
 10
164.644488
 20
162.188570
 42
0.132706
  0
VERTEX
  8
0
 10
169.098356
 20
162.457506
 42
0.115819
  0
VERTEX
  8
0
 10
173.076923
 20
164.923077
 42
0.105813
  0
VERTEX
  8
0
 10
175.518456
 20
168.694269
 42
0.120320
  0
VERTEX
  8
0
 10
176.050758
 20
172.957128
 42
0.121720
  0
VERTEX
  8
0
 10
174.559692
 20
176.948586
 42
0.109938
  0
VERTEX
  8
0
 10
171.335473
 20
179.964572
 42
0.034641
  0
VERTEX
  8
0
 10
168.579104
 20
181.343252
 42
0.091989
  0
VERTEX
  8
0
 10
166.434587
 20
181.802752
 42
0.099156
  0
VERTEX
  8
0
 10
164.365437
 20
181.447458
 42
0.044516
  0
SEQEND
  0
POLYLINE
  8
0
 66
1
 70
1
  0
VERTEX
  8
0
 10
72.296539
 20
139.015085
 42
0.025017
  0
VERTEX
  8
0
 10
68.686298
 20
138.055499
 42
0.047089
  0
VERTEX
  8
0
 10
65.915096
 20
136.871023
 42
0.042457
  0
VERTEX
  8
0
 10
63.234465
 20
135.103654
 42
0.016741
  0
VERTEX
  8
0
 10
59.854983
 20
132.250021
 42
0.041399
  0
VERTEX
  8
0
 10
57.145883
 20
129.361364
 42
0.041179
  0
VERTEX
  8
0
 10
54.944311
 20
126.060922
 42
0.044197
  0
VERTEX
  8
0
 10
53.478405
 20
122.757279
 42
0.082508
  0
VERTEX
  8
0
 10
53.000000
 20
119.877876
 42
-0.051281
  0
VERTEX
  8
0
 10
52.926112
 20
119.159344
 42
-0.071214
  0
VERTEX
  8
0
 10
52.706250
 20
118.551626
 42
-0.091270
  0
VERTEX
  8
0
 10
52.381693
 20
118.143105
 42
-0.181299
  0
VERTEX
  8
0
 10
52.000000
 20
118.000000
 42
0.391747
  0
VERTEX
  8
0
 10
51.547335
 20
117.581044
 42
0.005057
  0
VERTEX
  8
0
 10
51.264286
 20
113.375000
 42
0.010080
  0
VERTEX
  8
0
 10
51.062020
 20
107.899317
 42
0.004191
  0
VERTEX
  8
0
 10
51.000000
 20
100.500000
 42
0.004191
  0
VERTEX
  8
0
 10
51.062020
 20
93.100683
 42
0.010080
  0
VERTEX
  8
0
 10
51.264286
 20
87.625000
 42
0.005057
  0
VERTEX
  8
0
 10
51.547335
 20
83.418956
 42
0.391747
  0
VERTEX
  8
0
 10
52.000000
 20
83.000000
 42
-0.204996
  0
VERTEX
  8
0
 10
52.382225
 20
82.836417
 42
-0.083363
  0
VERTEX
  8
0
 10
52.706250
 20
82.358369
 42
-0.063614
  0
VERTEX
  8
0
 10
52.926556
 20
81.651886
 42
-0.043833
  0
VERTEX
  8
0
 10
53.000000
 20
80.815724
 42
0.093506
  0
VERTEX
  8
0
 10
53.604062
 20
77.613884
 42
0.039186
  0
VERTEX
  8
0
 10
55.525119
 20
73.649863
 42
0.038420
  0
VERTEX
  8
0
 10
58.196971
 20
69.797612
 42
0.054488
  0
VERTEX
  8
0
 10
61.163151
 20
66.870782
 42
0.060467
  0
VERTEX
  8
0
 10
65.112491
 20
64.454495
 42
0.038729
  0
VERTEX
  8
0
 10
70.167840
 20
62.604229
 42
0.035755
  0
VERTEX
  8
0
 10
75.937036
 20
61.422981
 42
0.031926
  0
VERTEX
  8
0
 10
82.039901
 20
61.015621
 42
0.035890
  0
VERTEX
  8
0
 10
87.109180
 20
61.365601
 42
0.021336
  0
VERTEX
  8
0
 10
93.063950
 20
62.469780
 42
0.013610
  0
VERTEX
  8
0
 10
98.567830
 20
63.894091
 42
0.243313
  0
VERTEX
  8
0
 10
99.854875
 20
65.111976
 42
-0.122490
  0
VERTEX
  8
0
 10
100.151354
 20
65.565077
 42
-0.034408
  0
VERTEX
  8
0
 10
100.814341
 20
66.099924
 42
-0.032496
  0
VERTEX
  8
0
 10
101.673128
 20
66.620641
 42
-0.029203
  0
VERTEX
  8
0
 10
102.622808
 20
67.046691
 42
0.065508
  0
VERTEX
  8
0
 10
103.616864
 20
67.582222
 42
0.042518
  0
VERTEX
  8
0
 10
104.608241
 20
68.434278
 42
0.042260
  0
VERTEX
  8
0
 10
105.449566
 20
69.450793
 42
0.060972
  0
VERTEX
  8
0
 10
105.993182
 20
70.482067
 42
-0.026137
  0
VERTEX
  8
0
 10
106.418677
 20
71.446285
 42
-0.035754
  0
VERTEX
  8
0
 10
106.905906
 20
72.260357
 42
-0.038777
  0
VERTEX
  8
0
 10
107.384006
 20
72.841629
 42
-0.204003
  0
VERTEX
  8
0
 10
107.756012
 20
73.000000
 42
0.326238
  0
VERTEX
  8
0
 10
109.374385
 20
74.181723
 42
0.037235
  0
VERTEX
  8
0
 10
110.491273
 20
78.847545
 42
0.026263
  0
VERTEX
  8
0
 10
111.297086
 20
86.279284
 42
0.007855
  0
VERTEX
  8
0
 10
111.750519
 20
97.670628
 42
0.003784
  0
VERTEX
  8
0
 10
111.912539
 20
107.484296
 42
0.015170
  0
VERTEX
  8
0
 10
111.784076
 20
113.487108
 42
0.024331
  0
VERTEX
  8
0
 10
111.347327
 20
117.823084
 42
0.032912
  0
VERTEX
  8
0
 10
110.507760
 20
121.670628
 42
0.055085
  0
VERTEX
  8
0
 10
108.602895
 20
126.295513
 42
0.054484
  0
VERTEX
  8
0
 10
105.728487
 20
130.411502
 42
0.052111
  0
VERTEX
  8
0
 10
101.905066
 20
133.960474
 42
0.043106
  0
VERTEX
  8
0
 10
97.187831
 20
136.904176
 42
0.073156
  0
VERTEX
  8
0
 10
92.604645
 20
138.452004
 42
0.023764
  0
VERTEX
  8
0
 10
85.498700
 20
139.396355
 42
0.024351
  0
VERTEX
  8
0
 10
78.090607
 20
139.662491
 42
0.049285
  0
SEQEND
  0
POLYLINE
  8
0
 66
1
 70
1
  0
VERTEX
  8
0
 10
92.806834
 20
124.984693
 42
-0.076204
  0
VERTEX
  8
0
 10
96.128607
 20
121.640562
 42
-0.097436
  0
VERTEX
  8
0
 10
97.957173
 20
117.712411
 42
-0.051845
  0
VERTEX
  8
0
 10
98.797743
 20
111.651776
 42
-0.008555
  0
VERTEX
  8
0
 10
99.000000
 20
99.831005
 42
-0.002679
  0
VERTEX
  8
0
 10
98.943814
 20
89.346407
 42
-0.029330
  0
VERTEX
  8
0
 10
98.651886
 20
85.144354
 42
-0.068278
  0
VERTEX
  8
0
 10
97.913304
 20
82.415774
 42
-0.049078
  0
VERTEX
  8
0
 10
96.401234
 20
79.639841
 42
-0.064702
  0
VERTEX
  8
0
 10
93.706224
 20
76.604466
 42
-0.075870
  0
VERTEX
  8
0
 10
90.456217
 20
74.548492
 42
-0.066468
  0
VERTEX
  8
0
 10
86.391096
 20
73.380166
 42
-0.036796
  0
VERTEX
  8
0
 10
81.232287
 20
73.000000
 42
-0.058725
  0
VERTEX
  8
0
 10
76.184042
 20
73.594970
 42
-0.069080
  0
VERTEX
  8
0
 10
71.702636
 20
75.346415
 42
-0.076539
  0
VERTEX
  8
0
 10
68.239325
 20
78.052624
 42
-0.102292
  0
VERTEX
  8
0
 10
66.156874
 20
81.442719
 42
-0.063553
  0
VERTEX
  8
0
 10
65.670232
 20
83.618511
 42
-0.008635
  0
VERTEX
  8
0
 10
65.315878
 20
88.282183
 42
-0.009103
  0
VERTEX
  8
0
 10
65.077384
 20
94.187933
 42
-0.005539
  0
VERTEX
  8
0
 10
65.000000
 20
101.173115
 42
-0.002840
  0
VERTEX
  8
0
 10
65.057538
 20
111.301794
 42
-0.025414
  0
VERTEX
  8
0
 10
65.333876
 20
115.740322
 42
-0.058332
  0
VERTEX
  8
0
 10
65.984322
 20
118.524217
 42
-0.063305
  0
VERTEX
  8
0
 10
67.250000
 20
121.000506
 42
-0.061001
  0
VERTEX
  8
0
 10
70.207825
 20
124.367489
 42
-0.082032
  0
VERTEX
  8
0
 10
73.631421
 20
126.535197
 42
-0.074670
  0
VERTEX
  8
0
 10
77.821121
 20
127.612554
 42
-0.041750
  0
VERTEX
  8
0
 10
83.094886
 20
127.713703
 42
-0.017103
  0
VERTEX
  8
0
 10
86.382418
 20
127.388907
 42
-0.035328
  0
VERTEX
  8
0
 10
88.910184
 20
126.867799
 42
-0.043453
  0
VERTEX
  8
0
 10
90.971982
 20
126.089891
 42
-0.047287
  0
SEQEND
  0
POLYLINE
  8
0
 66
1
 70
1
  0
VERTEX
  8
0
 10
242.523975
 20
135.723975
 42
0.043313
  0
VERTEX
  8
0
 10
239.921780
 20
132.627174
 42
0.144380
  0
VERTEX
  8
0
 10
239.081271
 20
130.136628
 42
0.206814
  0
VERTEX
  8
0
 10
239.853228
 20
128.141482
 42
0.099253
  0
VERTEX
  8
0
 10
242.169569
 20
126.570748
 42
0.022149
  0
VERTEX
  8
0
 10
244.024220
 20
125.885888
 42
0.104054
  0
VERTEX
  8
0
 10
245.148425
 20
125.770727
 42
0.124294
  0
VERTEX
  8
0
 10
246.120440
 20
126.128405
 42
0.037545
  0
VERTEX
  8
0
 10
247.358130
 20
127.119022
 42
-0.080535
  0
VERTEX
  8
0
 10
249.389909
 20
128.477355
 42
-0.122274
  0
VERTEX
  8
0
 10
251.468085
 20
128.866774
 42
-0.081547
  0
VERTEX
  8
0
 10
254.079367
 20
128.280545
 42
-0.021366
  0
VERTEX
  8
0
 10
258.000000
 20
126.500000
 42
0.031893
  0
VERTEX
  8
0
 10
262.417744
 20
124.604757
 42
0.101862
  0
VERTEX
  8
0
 10
265.578797
 20
124.164223
 42
0.120109
  0
VERTEX
  8
0
 10
268.354678
 20
125.033945
 42
0.053410
  0
VERTEX
  8
0
 10
271.428798
 20
127.368077
 42
0.042337
  0
VERTEX
  8
0
 10
274.009345
 20
130.251409
 42
0.151326
  0
VERTEX
  8
0
 10
274.836638
 20
132.553139
 42
0.195444
  0
VERTEX
  8
0
 10
274.126158
 20
134.553042
 42
0.077621
  0
VERTEX
  8
0
 10
271.834265
 20
136.438830
 42
0.012301
  0
VERTEX
  8
0
 10
269.767212
 20
137.592241
 42
0.136390
  0
VERTEX
  8
0
 10
268.851580
 20
137.790519
 42
0.183857
  0
VERTEX
  8
0
 10
268.089828
 20
137.448965
 42
0.026251
  0
VERTEX
  8
0
 10
266.923973
 20
136.154438
 42
-0.099844
  0
VERTEX
  8
0
 10
265.116884
 20
134.659610
 42
-0.118252
  0
VERTEX
  8
0
 10
262.977948
 20
134.098228
 42
-0.095961
  0
VERTEX
  8
0
 10
260.469401
 20
134.529037
 42
-0.048077
  0
VERTEX
  8
0
 10
257.571857
 20
135.955590
 42
0.034060
  0
VERTEX
  8
0
 10
256.059427
 20
136.753544
 42
0.018560
  0
VERTEX
  8
0
 10
254.109303
 20
137.533063
 42
0.018417
  0
VERTEX
  8
0
 10
252.058998
 20
138.181536
 42
0.027740
  0
VERTEX
  8
0
 10
250.227798
 20
138.579564
 42
0.027347
  0
VERTEX
  8
0
 10
247.715458
 20
138.841501
 42
0.101389
  0
VERTEX
  8
0
 10
246.149290
 20
138.600177
 42
0.089337
  0
VERTEX
  8
0
 10
244.700676
 20
137.745227
 42
0.018509
  0
SEQEND
  0
POLYLINE
  8
0
 66
1
 70
1
  0
VERTEX
  8
0
 10
140.003346
 20
117.961228
 42
0.018643
  0
VERTEX
  8
0
 10
138.256530
 20
117.527074
 42
0.025706
  0
VERTEX
  8
0
 10
136.728685
 20
116.999842
 42
0.024290
  0
VERTEX
  8
0
 10
135.550279
 20
116.456176
 42
0.194451
  0
VERTEX
  8
0
 10
135.170013
 20
116.010039
 42
-0.098480
  0
VERTEX
  8
0
 10
134.949948
 20
115.623967
 42
-0.070361
  0
VERTEX
  8
0
 10
134.573711
 20
115.296699
 42
-0.067643
  0
VERTEX
  8
0
 10
134.104554
 20
115.075638
 42
-0.076462
  0
VERTEX
  8
0
 10
133.612833
 20
115.000000
 42
0.188866
  0
VERTEX
  8
0
 10
131.743483
 20
114.267766
 42
0.028766
  0
VERTEX
  8
0
 10
128.912150
 20
111.327998
 42
0.032711
  0
VERTEX
  8
0
 10
126.328843
 20
107.884986
 42
0.074889
  0
VERTEX
  8
0
 10
124.983298
 20
104.941762
 42
0.061140
  0
VERTEX
  8
0
 10
124.204263
 20
100.026037
 42
0.009078
  0
VERTEX
  8
0
 10
124.034475
 20
89.972536
 42
0.009248
  0
VERTEX
  8
0
 10
124.233169
 20
79.921007
 42
0.058234
  0
VERTEX
  8
0
 10
125.021457
 20
74.862723
 42
0.094875
  0
VERTEX
  8
0
 10
126.869771
 20
71.133230
 42
0.045340
  0
VERTEX
  8
0
 10
130.490363
 20
67.167369
 42
0.044843
  0
VERTEX
  8
0
 10
134.890160
 20
63.818220
 42
0.074078
  0
VERTEX
  8
0
 10
139.159365
 20
61.946815
 42
0.065583
  0
VERTEX
  8
0
 10
145.509517
 20
61.089082
 42
0.030734
  0
VERTEX
  8
0
 10
153.802890
 20
61.572026
 42
0.027311
  0
VERTEX
  8
0
 10
161.542420
 20
62.934251
 42
0.161814
  0
VERTEX
  8
0
 10
165.000000
 20
65.052587
 42
-0.074705
  0
VERTEX
  8
0
 10
165.317045
 20
65.331440
 42
-0.016454
  0
VERTEX
  8
0
 10
165.940625
 20
65.704688
 42
-0.016765
  0
VERTEX
  8
0
 10
166.697667
 20
66.092032
 42
-0.015428
  0
VERTEX
  8
0
 10
167.500000
 20
66.439367
 42
0.028063
  0
VERTEX
  8
0
 10
168.295899
 20
66.808055
 42
0.136872
  0
VERTEX
  8
0
 10
168.651754
 20
67.147614
 42
0.328714
  0
VERTEX
  8
0
 10
168.622244
 20
67.446538
 42
0.120514
  0
VERTEX
  8
0
 10
168.250000
 20
67.699758
 42
-0.074348
  0
VERTEX
  8
0
 10
167.770465
 20
67.965416
 42
-0.063784
  0
VERTEX
  8
0
 10
167.360656
 20
68.372221
 42
-0.066074
  0
VERTEX
  8
0
 10
167.079466
 20
68.852435
 42
-0.094962
  0
VERTEX
  8
0
 10
166.977764
 20
69.333333
 42
0.094516
  0
VERTEX
  8
0
 10
166.850054
 20
69.939857
 42
0.022336
  0
VERTEX
  8
0
 10
166.406710
 20
70.879950
 42
0.022208
  0
VERTEX
  8
0
 10
165.790274
 20
71.932660
 42
0.020271
  0
VERTEX
  8
0
 10
165.064974
 20
72.960113
 42
0.000000
  0
VERTEX
  8
0
 10
163.174420
 20
75.420226
 42
0.000000
  0
VERTEX
  8
0
 10
157.749318
 20
73.710113
 42
-0.043718
  0
VERTEX
  8
0
 10
150.847824
 20
72.181422
 42
-0.076882
  0
VERTEX
  8
0
 10
145.018700
 20
72.314703
 42
-0.098901
  0
VERTEX
  8
0
 10
140.530955
 20
74.073346
 42
-0.127218
  0
VERTEX
  8
0
 10
137.531071
 20
77.312446
 42
-0.056581
  0
VERTEX
  8
0
 10
136.676402
 20
79.446328
 42
-0.041918
  0
VERTEX
  8
0
 10
136.210755
 20
81.946615
 42
-0.026404
  0
VERTEX
  8
0
 10
136.044935
 20
85.431683
 42
-0.006976
  0
VERTEX
  8
0
 10
136.152064
 20
91.009593
 42
-0.005450
  0
VERTEX
  8
0
 10
136.437522
 20
97.485119
 42
-0.044416
  0
VERTEX
  8
0
 10
136.861656
 20
100.415736
 42
-0.084768
  0
VERTEX
  8
0
 10
137.709809
 20
102.412712
 42
-0.047125
  0
VERTEX
  8
0
 10
139.346363
 20
104.500000
 42
-0.034805
  0
VERTEX
  8
0
 10
141.161148
 20
106.164031
 42
-0.088499
  0
VERTEX
  8
0
 10
142.727233
 20
107.011414
 42
-0.066958
  0
VERTEX
  8
0
 10
144.741651
 20
107.389891
 42
-0.013942
  0
VERTEX
  8
0
 10
148.346363
 20
107.476859
 42
-0.020638
  0
VERTEX
  8
0
 10
151.124506
 20
107.351672
 42
-0.023623
  0
VERTEX
  8
0
 10
153.759086
 20
106.997749
 42
-0.025701
  0
VERTEX
  8
0
 10
156.079900
 20
106.449042
 42
-0.046528
  0
VERTEX
  8
0
 10
157.893467
 20
105.731932
 42
0.011719
  0
VERTEX
  8
0
 10
160.006890
 20
104.721180
 42
0.107284
  0
VERTEX
  8
0
 10
160.997492
 20
104.511166
 42
0.178981
  0
VERTEX
  8
0
 10
161.756575
 20
104.796063
 42
0.046189
  0
VERTEX
  8
0
 10
162.677653
 20
105.755074
 42
0.038589
  0
VERTEX
  8
0
 10
163.774955
 20
107.373630
 42
0.020686
  0
VERTEX
  8
0
 10
164.884569
 20
109.519280
 42
0.018736
  0
VERTEX
  8
0
 10
165.768492
 20
111.619102
 42
0.090488
  0
VERTEX
  8
0
 10
166.000000
 20
112.887844
 42
0.234566
  0
VERTEX
  8
0
 10
165.802720
 20
113.285229
 42
0.014578
  0
VERTEX
  8
0
 10
164.701657
 20
114.071355
 42
0.019109
  0
VERTEX
  8
0
 10
163.273693
 20
114.952109
 42
0.012819
  0
VERTEX
  8
0
 10
161.580110
 20
115.852889
 42
0.059302
  0
VERTEX
  8
0
 10
157.127831
 20
117.451513
 42
0.032224
  0
VERTEX
  8
0
 10
151.383003
 20
118.389399
 42
0.031689
  0
VERTEX
  8
0
 10
145.355301
 20
118.594705
 42
0.044282
  0
SEQEND
  0
POLYLINE
  8
0
 66
1
 70
1
  0
VERTEX
  8
0
 10
188.500000
 20
117.980532
 42
0.028728
  0
VERTEX
  8
0
 10
186.664070
 20
117.502114
 42
0.014888
  0
VERTEX
  8
0
 10
184.430680
 20
116.706724
 42
0.014753
  0
VERTEX
  8
0
 10
182.177516
 20
115.750358
 42
0.021688
  0
VERTEX
  8
0
 10
180.264018
 20
114.768039
 42
0.000000
  0
VERTEX
  8
0
 10
176.028035
 20
112.355883
 42
0.000000
  0
VERTEX
  8
0
 10
179.123658
 20
108.146490
 42
0.017592
  0
VERTEX
  8
0
 10
180.575109
 20
106.311715
 42
0.051568
  0
VERTEX
  8
0
 10
181.738348
 20
105.198796
 42
0.091448
  0
VERTEX
  8
0
 10
182.660078
 20
104.721437
 42
0.248534
  0
VERTEX
  8
0
 10
183.359640
 20
104.857228
 42
-0.109474
  0
VERTEX
  8
0
 10
185.882427
 20
106.109782
 42
-0.020797
  0
VERTEX
  8
0
 10
190.939959
 20
107.141166
 42
-0.023201
  0
VERTEX
  8
0
 10
196.277537
 20
107.747924
 42
-0.053964
  0
VERTEX
  8
0
 10
200.295011
 20
107.583011
 42
-0.069176
  0
VERTEX
  8
0
 10
203.779128
 20
106.554745
 42
-0.111422
  0
VERTEX
  8
0
 10
206.237866
 20
104.697048
 42
-0.117512
  0
VERTEX
  8
0
 10
207.578785
 20
102.043307
 42
-0.082793
  0
VERTEX
  8
0
 10
207.809239
 20
98.694772
 42
0.000000
  0
VERTEX
  8
0
 10
207.500000
 20
95.500000
 42
0.000000
  0
VERTEX
  8
0
 10
196.500000
 20
94.900393
 42
0.009935
  0
VERTEX
  8
0
 10
188.709127
 20
94.320264
 42
0.044102
  0
VERTEX
  8
0
 10
184.197020
 20
93.488273
 42
0.068677
  0
VERTEX
  8
0
 10
180.938008
 20
92.080987
 42
0.051431
  0
VERTEX
  8
0
 10
177.815692
 20
89.719499
 42
0.131778
  0
VERTEX
  8
0
 10
174.927401
 20
85.096603
 42
0.071916
  0
VERTEX
  8
0
 10
173.902299
 20
78.440536
 42
0.072086
  0
VERTEX
  8
0
 10
174.804066
 20
71.786328
 42
0.134443
  0
VERTEX
  8
0
 10
177.607671
 20
67.171226
 42
0.045354
  0
VERTEX
  8
0
 10
180.837619
 20
64.628220
 42
0.058244
  0
VERTEX
  8
0
 10
184.223402
 20
62.950903
 42
0.048120
  0
VERTEX
  8
0
 10
188.389746
 20
61.898414
 42
0.020428
  0
VERTEX
  8
0
 10
194.120312
 20
61.263032
 42
0.028645
  0
VERTEX
  8
0
 10
200.056525
 20
61.190010
 42
0.012364
  0
VERTEX
  8
0
 10
207.950079
 20
61.741094
 42
0.010964
  0
VERTEX
  8
0
 10
215.529739
 20
62.627039
 42
0.057093
  0
VERTEX
  8
0
 10
219.598220
 20
63.676064
 42
0.262888
  0
VERTEX
  8
0
 10
220.342416
 20
64.577301
 42
0.024473
  0
VERTEX
  8
0
 10
220.722041
 20
67.546421
 42
0.016517
  0
VERTEX
  8
0
 10
220.944696
 20
72.468988
 42
0.003042
  0
VERTEX
  8
0
 10
221.000000
 20
81.557768
 42
0.005618
  0
VERTEX
  8
0
 10
220.921270
 20
88.564915
 42
0.006380
  0
VERTEX
  8
0
 10
220.684698
 20
95.277021
 42
0.005844
  0
VERTEX
  8
0
 10
220.344648
 20
100.968167
 42
0.034988
  0
VERTEX
  8
0
 10
219.926632
 20
103.906500
 42
0.121421
  0
VERTEX
  8
0
 10
216.260767
 20
111.439172
 42
0.114284
  0
VERTEX
  8
0
 10
209.441992
 20
116.608171
 42
0.094744
  0
VERTEX
  8
0
 10
199.907050
 20
118.862158
 42
0.060244
  0
SEQEND
  0
POLYLINE
  8
0
 66
1
 70
1
  0
VERTEX
  8
0
 10
207.804596
 20
79.592759
 42
-0.014080
  0
VERTEX
  8
0
 10
207.867907
 20
76.882953
 42
-0.035668
  0
VERTEX
  8
0
 10
207.718212
 20
74.919737
 42
-0.050563
  0
VERTEX
  8
0
 10
207.375062
 20
73.567094
 42
-0.165508
  0
VERTEX
  8
0
 10
206.804596
 20
72.858072
 42
-0.105185
  0
VERTEX
  8
0
 10
205.929573
 20
72.533072
 42
-0.011567
  0
VERTEX
  8
0
 10
203.793152
 20
72.269190
 42
-0.013717
  0
VERTEX
  8
0
 10
201.204959
 20
72.081664
 42
-0.010686
  0
VERTEX
  8
0
 10
198.384859
 20
72.015313
 42
-0.012371
  0
VERTEX
  8
0
 10
194.631595
 20
72.100111
 42
-0.040177
  0
VERTEX
  8
0
 10
192.164079
 20
72.416789
 42
-0.057924
  0
VERTEX
  8
0
 10
190.309820
 20
73.038834
 42
-0.056843
  0
VERTEX
  8
0
 10
188.634859
 20
74.072580
 42
-0.092910
  0
VERTEX
  8
0
 10
186.595376
 20
76.402658
 42
-0.150828
  0
VERTEX
  8
0
 10
185.989463
 20
78.941177
 42
-0.144717
  0
VERTEX
  8
0
 10
186.914511
 20
81.455557
 42
-0.083135
  0
VERTEX
  8
0
 10
189.263107
 20
83.709951
 42
-0.043900
  0
VERTEX
  8
0
 10
191.290060
 20
84.847213
 42
-0.059920
  0
VERTEX
  8
0
 10
193.286746
 20
85.473315
 42
-0.041891
  0
VERTEX
  8
0
 10
195.866613
 20
85.733284
 42
-0.011171
  0
VERTEX
  8
0
 10
200.000000
 20
85.709951
 42
0.000000
  0
VERTEX
  8
0
 10
207.500000
 20
85.500000
 42
0.000000
  0
SEQEND
  0
POLYLINE
  8
0
 66
1
 70
1
  0
VERTEX
  8
0
 10
246.236634
 20
117.982843
 42
0.017937
  0
VERTEX
  8
0
 10
243.966318
 20
117.568084
 42
0.013374
  0
VERTEX
  8
0
 10
241.495183
 20
116.954680
 42
0.013560
  0
VERTEX
  8
0
 10
239.194395
 20
116.250079
 42
0.029702
  0
VERTEX
  8
0
 10
237.486634
 20
115.560682
 42
0.000000
  0
VERTEX
  8
0
 10
234.000000
 20
113.906165
 42
0.000000
  0
VERTEX
  8
0
 10
234.000000
 20
87.953083
 42
0.000000
  0
VERTEX
  8
0
 10
234.000000
 20
62.000000
 42
0.000000
  0
VERTEX
  8
0
 10
240.000000
 20
62.000000
 42
0.000000
  0
VERTEX
  8
0
 10
246.000000
 20
62.000000
 42
0.000000
  0
VERTEX
  8
0
 10
246.000000
 20
84.428044
 42
0.000000
  0
VERTEX
  8
0
 10
246.000000
 20
106.856087
 42
0.000000
  0
VERTEX
  8
0
 10
251.487418
 20
107.541695
 42
-0.028190
  0
VERTEX
  8
0
 10
256.179864
 20
107.860952
 42
-0.044780
  0
VERTEX
  8
0
 10
260.191063
 20
107.547707
 42
-0.053060
  0
VERTEX
  8
0
 10
263.525198
 20
106.612545
 42
-0.075294
  0
VERTEX
  8
0
 10
266.178644
 20
105.058631
 42
-0.120257
  0
VERTEX
  8
0
 10
267.539150
 20
103.273969
 42
-0.071540
  0
VERTEX
  8
0
 10
268.253637
 20
100.683737
 42
-0.023662
  0
VERTEX
  8
0
 10
268.632718
 20
95.894846
 42
-0.001776
  0
VERTEX
  8
0
 10
269.000000
 20
82.840558
 42
0.000000
  0
VERTEX
  8
0
 10
269.500000
 20
62.500000
 42
0.000000
  0
VERTEX
  8
0
 10
275.500000
 20
62.500000
 42
0.000000
  0
VERTEX
  8
0
 10
281.500000
 20
62.500000
 42
0.000000
  0
VERTEX
  8
0
 10
281.787272
 20
78.500000
 42
0.006939
  0
VERTEX
  8
0
 10
281.814250
 20
85.121714
 42
0.006799
  0
VERTEX
  8
0
 10
281.658239
 20
91.786842
 42
0.006717
  0
VERTEX
  8
0
 10
281.363334
 20
97.629096
 42
0.025421
  0
VERTEX
  8
0
 10
280.944607
 20
101.263718
 42
0.017041
  0
VERTEX
  8
0
 10
280.157639
 20
105.153790
 42
0.056008
  0
VERTEX
  8
0
 10
279.271418
 20
107.615289
 42
0.060176
  0
VERTEX
  8
0
 10
277.896527
 20
109.724428
 42
0.021879
  0
VERTEX
  8
0
 10
275.481293
 20
112.360813
 42
0.079316
  0
VERTEX
  8
0
 10
270.323627
 20
116.098466
 42
0.069831
  0
VERTEX
  8
0
 10
264.029866
 20
118.249742
 42
0.055769
  0
VERTEX
  8
0
 10
256.170216
 20
118.868007
 42
0.027983
  0
SEQEND
  0
POLYLINE
  8
0
 66
1
 70
1
  0
VERTEX
  8
0
 10
305.520964
 20
117.889670
 42
0.010792
  0
VERTEX
  8
0
 10
303.575805
 20
117.450075
 42
0.014879
  0
VERTEX
  8
0
 10
301.851487
 20
116.966167
 42
0.011453
  0
VERTEX
  8
0
 10
300.455874
 20
116.493958
 42
0.148015
  0
VERTEX
  8
0
 10
300.020964
 20
116.168075
 42
-0.086747
  0
VERTEX
  8
0
 10
299.660987
 20
115.823255
 42
-0.014891
  0
VERTEX
  8
0
 10
298.856668
 20
115.317801
 42
-0.015831
  0
VERTEX
  8
0
 10
297.865092
 20
114.776592
 42
-0.013550
  0
VERTEX
  8
0
 10
296.788969
 20
114.268840
 42
0.096635
  0
VERTEX
  8
0
 10
295.229848
 20
113.187392
 42
0.241224
  0
VERTEX
  8
0
 10
294.833976
 20
111.899830
 42
0.099382
  0
VERTEX
  8
0
 10
295.593349
 20
109.960606
 42
0.011238
  0
VERTEX
  8
0
 10
298.246582
 20
106.030505
 42
0.021795
  0
VERTEX
  8
0
 10
299.415766
 20
104.523656
 42
0.182807
  0
VERTEX
  8
0
 10
300.156218
 20
104.113637
 42
0.155937
  0
VERTEX
  8
0
 10
301.043637
 20
104.261670
 42
0.014724
  0
VERTEX
  8
0
 10
302.999830
 20
105.340828
 42
-0.056378
  0
VERTEX
  8
0
 10
304.629710
 20
106.070499
 42
-0.018863
  0
VERTEX
  8
0
 10
307.149095
 20
106.769301
 42
-0.018353
  0
VERTEX
  8
0
 10
310.042990
 20
107.344320
 42
-0.018953
  0
VERTEX
  8
0
 10
312.940402
 20
107.698223
 42
-0.009195
  0
VERTEX
  8
0
 10
317.327688
 20
107.984907
 42
-0.072672
  0
VERTEX
  8
0
 10
319.349673
 20
107.785652
 42
-0.106421
  0
VERTEX
  8
0
 10
320.900319
 20
107.026329
 42
-0.029508
  0
VERTEX
  8
0
 10
322.937155
 20
105.216691
 42
-0.031146
  0
VERTEX
  8
0
 10
324.392388
 20
103.567914
 42
-0.057225
  0
VERTEX
  8
0
 10
325.321860
 20
102.040025
 42
-0.062573
  0
VERTEX
  8
0
 10
325.829884
 20
100.438752
 42
-0.045590
  0
VERTEX
  8
0
 10
326.000000
 20
98.576923
 42
0.000000
  0
VERTEX
  8
0
 10
326.000000
 20
95.000000
 42
0.000000
  0
VERTEX
  8
0
 10
316.750000
 20
94.994423
 42
0.017026
  0
VERTEX
  8
0
 10
309.366953
 20
94.738485
 42
0.041763
  0
VERTEX
  8
0
 10
304.001799
 20
93.915668
 42
0.056672
  0
VERTEX
  8
0
 10
299.947999
 20
92.441075
 42
0.073685
  0
VERTEX
  8
0
 10
296.711515
 20
90.182869
 42
0.058525
  0
VERTEX
  8
0
 10
293.183585
 20
85.973662
 42
0.094645
  0
VERTEX
  8
0
 10
291.404276
 20
81.668629
 42
0.094405
  0
VERTEX
  8
0
 10
291.334539
 20
77.002938
 42
0.057978
  0
VERTEX
  8
0
 10
292.906839
 20
71.717336
 42
0.093707
  0
VERTEX
  8
0
 10
296.108808
 20
66.953953
 42
0.089642
  0
VERTEX
  8
0
 10
300.874291
 20
63.599841
 42
0.071796
  0
VERTEX
  8
0
 10
307.433562
 20
61.634299
 42
0.036966
  0
VERTEX
  8
0
 10
316.001267
 20
61.000000
 42
0.022229
  0
VERTEX
  8
0
 10
322.098207
 20
61.271193
 42
0.014597
  0
VERTEX
  8
0
 10
329.078158
 20
62.099333
 42
0.010061
  0
VERTEX
  8
0
 10
335.516803
 20
63.187392
 42
0.124653
  0
VERTEX
  8
0
 10
337.750000
 20
64.226637
 42
0.194980
  0
VERTEX
  8
0
 10
338.375942
 20
65.366755
 42
0.013127
  0
VERTEX
  8
0
 10
338.719096
 20
69.139523
 42
0.012651
  0
VERTEX
  8
0
 10
338.938720
 20
74.746156
 42
0.003463
  0
VERTEX
  8
0
 10
339.000000
 20
83.593931
 42
0.002875
  0
VERTEX
  8
0
 10
338.935795
 20
94.760562
 42
0.022029
  0
VERTEX
  8
0
 10
338.644740
 20
99.994611
 42
0.043732
  0
VERTEX
  8
0
 10
337.962802
 20
103.598500
 42
0.035507
  0
VERTEX
  8
0
 10
336.631005
 20
107.299691
 42
0.068591
  0
VERTEX
  8
0
 10
333.665067
 20
112.101020
 42
0.086550
  0
VERTEX
  8
0
 10
329.703831
 20
115.490703
 42
0.077398
  0
VERTEX
  8
0
 10
324.467956
 20
117.585882
 42
0.043734
  0
VERTEX
  8
0
 10
317.681504
 20
118.533536
 42
0.014851
  0
VERTEX
  8
0
 10
314.567586
 20
118.600897
 42
0.011207
  0
VERTEX
  8
0
 10
311.146975
 20
118.496590
 42
0.011357
  0
VERTEX
  8
0
 10
307.934767
 20
118.253248
 42
0.025594
  0
SEQEND
  0
POLYLINE
  8
0
 66
1
 70
1
  0
VERTEX
  8
0
 10
325.795690
 20
79.250000
 42
0.000000
  0
VERTEX
  8
0
 10
325.500000
 20
72.500000
 42
0.000000
  0
VERTEX
  8
0
 10
316.297554
 20
72.500000
 42
-0.010421
  0
VERTEX
  8
0
 10
312.697381
 20
72.575039
 42
-0.014695
  0
VERTEX
  8
0
 10
309.496115
 20
72.802930
 42
-0.010810
  0
VERTEX
  8
0
 10
306.877367
 20
73.124206
 42
-0.162122
  0
VERTEX
  8
0
 10
306.066304
 20
73.531250
 42
-0.078854
  0
VERTEX
  8
0
 10
305.627719
 20
74.136807
 42
-0.023060
  0
VERTEX
  8
0
 10
305.153985
 20
75.188203
 42
-0.022548
  0
VERTEX
  8
0
 10
304.722944
 20
76.437920
 42
-0.022416
  0
VERTEX
  8
0
 10
304.405240
 20
77.723801
 42
-0.041542
  0
VERTEX
  8
0
 10
304.204095
 20
79.474996
 42
-0.097166
  0
VERTEX
  8
0
 10
304.416362
 20
80.770559
 42
-0.087605
  0
VERTEX
  8
0
 10
305.121122
 20
81.970953
 42
-0.029443
  0
VERTEX
  8
0
 10
306.532512
 20
83.442551
 42
-0.048785
  0
VERTEX
  8
0
 10
308.386861
 20
84.851992
 42
-0.081967
  0
VERTEX
  8
0
 10
310.192389
 20
85.591750
 42
-0.048373
  0
VERTEX
  8
0
 10
312.736988
 20
85.920848
 42
-0.007987
  0
VERTEX
  8
0
 10
317.691713
 20
86.000000
 42
0.000000
  0
VERTEX
  8
0
 10
326.091380
 20
86.000000
 42
0.000000
  0
SEQEND
  0
POLYLINE
  8
0
 66
1
 70
1
  0
VERTEX
  8
0
 10
51.219221
 20
36.750000
 42
0.000000
  0
VERTEX
  8
0
 10
51.500000
 20
24.500000
 42
0.000000
  0
VERTEX
  8
0
 10
58.750000
 20
24.206190
 42
0.005622
  0
VERTEX
  8
0
 10
63.165947
 20
24.076943
 42
0.063803
  0
VERTEX
  8
0
 10
64.899115
 20
24.267340
 42
0.201422
  0
VERTEX
  8
0
 10
65.695417
 20
24.853287
 42
0.135545
  0
VERTEX
  8
0
 10
66.000000
 20
25.956190
 42
0.120324
  0
VERTEX
  8
0
 10
65.733333
 20
27.048269
 42
0.193226
  0
VERTEX
  8
0
 10
65.016076
 20
27.664841
 42
0.073884
  0
VERTEX
  8
0
 10
63.501702
 20
27.941676
 42
0.008327
  0
VERTEX
  8
0
 10
60.000000
 20
28.000000
 42
0.000000
  0
VERTEX
  8
0
 10
54.000000
 20
28.000000
 42
0.000000
  0
VERTEX
  8
0
 10
54.000000
 20
32.000000
 42
0.000000
  0
VERTEX
  8
0
 10
54.000000
 20
36.000000
 42
0.000000
  0
VERTEX
  8
0
 10
59.500000
 20
36.000000
 42
0.012120
  0
VERTEX
  8
0
 10
62.247932
 20
36.066617
 42
0.054498
  0
VERTEX
  8
0
 10
63.833333
 20
36.318182
 42
0.118311
  0
VERTEX
  8
0
 10
64.683247
 20
36.784456
 42
0.211442
  0
VERTEX
  8
0
 10
65.000000
 20
37.500000
 42
0.211442
  0
VERTEX
  8
0
 10
64.683247
 20
38.215544
 42
0.118311
  0
VERTEX
  8
0
 10
63.833333
 20
38.681818
 42
0.054498
  0
VERTEX
  8
0
 10
62.247932
 20
38.933383
 42
0.012120
  0
VERTEX
  8
0
 10
59.500000
 20
39.000000
 42
0.000000
  0
VERTEX
  8
0
 10
54.000000
 20
39.000000
 42
0.000000
  0
VERTEX
  8
0
 10
54.000000
 20
43.000000
 42
0.000000
  0
VERTEX
  8
0
 10
54.000000
 20
47.000000
 42
0.000000
  0
VERTEX
  8
0
 10
60.000000
 20
47.000000
 42
0.015416
  0
VERTEX
  8
0
 10
62.316313
 20
47.071434
 42
0.025878
  0
VERTEX
  8
0
 10
64.250000
 20
47.291667
 42
0.024068
  0
VERTEX
  8
0
 10
65.696775
 20
47.604992
 42
0.339565
  0
VERTEX
  8
0
 10
66.000000
 20
48.000000
 42
0.355184
  0
VERTEX
  8
0
 10
65.666625
 20
48.410094
 42
0.018412
  0
VERTEX
  8
0
 10
63.867305
 20
48.716803
 42
0.021546
  0
VERTEX
  8
0
 10
61.460327
 20
48.931424
 42
0.011462
  0
VERTEX
  8
0
 10
58.469221
 20
49.000000
 42
0.000000
  0
VERTEX
  8
0
 10
50.938442
 20
49.000000
 42
0.000000
  0
SEQEND
  0
POLYLINE
  8
0
 66
1
 70
1
  0
VERTEX
  8
0
 10
106.000000
 20
38.500000
 42
0.007890
  0
VERTEX
  8
0
 10
106.063533
 20
34.474033
 42
0.013094
  0
VERTEX
  8
0
 10
106.259490
 20
31.084375
 42
0.006699
  0
VERTEX
  8
0
 10
106.529743
 20
28.316488
 42
0.382142
  0
VERTEX
  8
0
 10
106.883369
 20
28.000000
 42
-0.181596
  0
VERTEX
  8
0
 10
107.259476
 20
27.858742
 42
-0.059916
  0
VERTEX
  8
0
 10
107.660882
 20
27.412500
 42
-0.050447
  0
VERTEX
  8
0
 10
108.024544
 20
26.765484
 42
-0.038887
  0
VERTEX
  8
0
 10
108.289749
 20
26.000000
 42
0.081569
  0
VERTEX
  8
0
 10
108.644655
 20
25.202175
 42
0.081632
  0
VERTEX
  8
0
 10
109.236016
 20
24.560013
 42
0.082154
  0
VERTEX
  8
0
 10
109.998180
 20
24.143922
 42
0.084142
  0
VERTEX
  8
0
 10
110.847363
 20
24.000000
 42
0.080272
  0
VERTEX
  8
0
 10
112.552691
 20
24.275556
 42
0.198029
  0
VERTEX
  8
0
 10
113.494898
 20
25.087707
 42
0.324993
  0
VERTEX
  8
0
 10
113.347587
 20
26.000209
 42
0.132394
  0
VERTEX
  8
0
 10
112.193070
 20
26.659762
 42
-0.165715
  0
VERTEX
  8
0
 10
110.590574
 20
27.719368
 42
-0.107489
  0
VERTEX
  8
0
 10
109.627475
 20
29.744212
 42
-0.048523
  0
VERTEX
  8
0
 10
109.142368
 20
33.374373
 42
-0.008579
  0
VERTEX
  8
0
 10
109.013655
 20
40.250000
 42
0.006200
  0
VERTEX
  8
0
 10
108.949134
 20
44.871697
 42
0.036250
  0
VERTEX
  8
0
 10
108.709422
 20
47.289391
 42
0.086344
  0
VERTEX
  8
0
 10
108.254763
 20
48.560311
 42
0.270036
  0
VERTEX
  8
0
 10
107.500000
 20
49.000000
 42
0.292784
  0
VERTEX
  8
0
 10
106.729954
 20
48.506808
 42
0.072528
  0
VERTEX
  8
0
 10
106.285714
 20
47.000000
 42
0.030643
  0
VERTEX
  8
0
 10
106.054606
 20
44.139949
 42
0.004841
  0
SEQEND
  0
POLYLINE
  8
0
 66
1
 70
1
  0
VERTEX
  8
0
 10
153.000000
 20
47.500000
 42
0.064853
  0
VERTEX
  8
0
 10
153.074694
 20
46.926543
 42
0.082425
  0
VERTEX
  8
0
 10
153.293750
 20
46.440625
 42
0.098894
  0
VERTEX
  8
0
 10
153.618646
 20
46.115568
 42
0.148195
  0
VERTEX
  8
0
 10
154.000000
 20
46.000000
 42
0.148195
  0
VERTEX
  8
0
 10
154.381354
 20
46.115568
 42
0.098894
  0
VERTEX
  8
0
 10
154.706250
 20
46.440625
 42
0.082425
  0
VERTEX
  8
0
 10
154.925306
 20
46.926543
 42
0.064853
  0
VERTEX
  8
0
 10
155.000000
 20
47.500000
 42
0.064853
  0
VERTEX
  8
0
 10
154.925306
 20
48.073457
 42
0.082425
  0
VERTEX
  8
0
 10
154.706250
 20
48.559375
 42
0.098894
  0
VERTEX
  8
0
 10
154.381354
 20
48.884432
 42
0.148195
  0
VERTEX
  8
0
 10
154.000000
 20
49.000000
 42
0.148195
  0
VERTEX
  8
0
 10
153.618646
 20
48.884432
 42
0.098894
  0
VERTEX
  8
0
 10
153.293750
 20
48.559375
 42
0.082425
  0
VERTEX
  8
0
 10
153.074694
 20
48.073457
 42
0.064853
  0
SEQEND
  0
POLYLINE
  8
0
 66
1
 70
1
  0
VERTEX
  8
0
 10
69.000000
 20
42.366020
 42
0.070875
  0
VERTEX
  8
0
 10
69.209455
 20
40.895815
 42
0.006575
  0
VERTEX
  8
0
 10
70.283318
 20
37.376719
 42
0.004328
  0
VERTEX
  8
0
 10
71.471564
 20
33.766705
 42
0.136249
  0
VERTEX
  8
0
 10
71.993251
 20
33.000000
 42
-0.111392
  0
VERTEX
  8
0
 10
72.288653
 20
32.608525
 42
-0.008506
  0
VERTEX
  8
0
 10
72.816138
 20
31.386699
 42
-0.011355
  0
VERTEX
  8
0
 10
73.393044
 20
29.889655
 42
-0.008403
  0
VERTEX
  8
0
 10
73.965184
 20
28.210040
 42
0.050395
  0
VERTEX
  8
0
 10
75.381148
 20
24.971769
 42
0.347763
  0
VERTEX
  8
0
 10
76.880132
 20
24.358191
 42
0.217235
  0
VERTEX
  8
0
 10
78.455557
 20
25.708653
 42
0.027085
  0
VERTEX
  8
0
 10
80.170347
 20
30.000000
 42
-0.006181
  0
VERTEX
  8
0
 10
80.997218
 20
32.349771
 42
-0.004933
  0
VERTEX
  8
0
 10
81.944869
 20
34.862918
 42
-0.004989
  0
VERTEX
  8
0
 10
82.868549
 20
37.172597
 42
-0.012542
  0
VERTEX
  8
0
 10
83.600295
 20
38.831212
 42
0.024289
  0
VERTEX
  8
0
 10
84.550866
 20
41.130590
 42
0.142546
  0
VERTEX
  8
0
 10
84.628723
 20
42.421179
 42
0.339493
  0
VERTEX
  8
0
 10
84.009600
 20
42.935607
 42
0.101632
  0
VERTEX
  8
0
 10
82.718233
 20
42.722117
 42
0.179238
  0
VERTEX
  8
0
 10
82.088864
 20
42.168874
 42
0.019595
  0
VERTEX
  8
0
 10
81.226466
 20
40.409640
 42
0.022004
  0
VERTEX
  8
0
 10
80.346034
 20
38.157089
 42
0.016064
  0
VERTEX
  8
0
 10
79.560932
 20
35.587033
 42
-0.008060
  0
VERTEX
  8
0
 10
78.821836
 20
33.021318
 42
-0.011706
  0
VERTEX
  8
0
 10
78.080658
 20
30.784769
 42
-0.007403
  0
VERTEX
  8
0
 10
77.395282
 20
28.954036
 42
-0.162456
  0
VERTEX
  8
0
 10
77.034304
 20
28.521201
 42
-0.394165
  0
VERTEX
  8
0
 10
76.676275
 20
28.592793
 42
-0.036133
  0
VERTEX
  8
0
 10
76.157651
 20
29.438175
 42
-0.031635
  0
VERTEX
  8
0
 10
75.602902
 20
30.698009
 42
-0.017948
  0
VERTEX
  8
0
 10
75.085382
 20
32.282747
 42
0.016598
  0
VERTEX
  8
0
 10
73.757073
 20
36.387781
 42
0.025123
  0
VERTEX
  8
0
 10
72.307825
 20
39.850516
 42
0.022464
  0
VERTEX
  8
0
 10
70.914492
 20
42.453138
 42
0.264508
  0
VERTEX
  8
0
 10
69.953083
 20
43.000000
 42
0.064702
  0
VERTEX
  8
0
 10
69.588712
 20
42.952651
 42
0.082318
  0
VERTEX
  8
0
 10
69.279968
 20
42.813768
 42
0.098847
  0
VERTEX
  8
0
 10
69.073428
 20
42.607791
 42
0.148505
  0
SEQEND
  0
POLYLINE
  8
0
 66
1
 70
1
  0
VERTEX
  8
0
 10
89.478033
 20
41.607596
 42
0.094489
  0
VERTEX
  8
0
 10
88.536617
 20
40.599093
 42
0.077934
  0
VERTEX
  8
0
 10
87.953228
 20
39.245875
 42
0.048207
  0
VERTEX
  8
0
 10
87.640395
 20
37.245687
 42
0.013205
  0
VERTEX
  8
0
 10
87.536903
 20
34.052297
 42
0.012368
  0
VERTEX
  8
0
 10
87.602845
 20
30.535400
 42
0.063139
  0
VERTEX
  8
0
 10
87.932228
 20
28.611871
 42
0.099173
  0
VERTEX
  8
0
 10
88.658257
 20
27.261795
 42
0.056096
  0
VERTEX
  8
0
 10
90.000000
 20
25.966937
 42
0.056694
  0
VERTEX
  8
0
 10
92.313666
 20
24.572892
 42
0.110479
  0
VERTEX
  8
0
 10
94.411154
 20
24.128144
 42
0.104762
  0
VERTEX
  8
0
 10
96.573087
 20
24.611328
 42
0.047569
  0
VERTEX
  8
0
 10
99.095630
 20
26.068094
 42
0.040629
  0
VERTEX
  8
0
 10
100.664366
 20
27.389396
 42
0.099847
  0
VERTEX
  8
0
 10
101.499729
 20
28.635533
 42
0.079018
  0
VERTEX
  8
0
 10
101.892732
 20
30.285634
 42
0.019028
  0
VERTEX
  8
0
 10
102.000000
 20
33.103278
 42
0.044692
  0
VERTEX
  8
0
 10
101.599613
 20
37.573761
 42
0.108376
  0
VERTEX
  8
0
 10
100.332577
 20
40.616651
 42
0.140923
  0
VERTEX
  8
0
 10
98.160608
 20
42.374218
 42
0.100417
  0
VERTEX
  8
0
 10
95.076120
 20
43.000000
 42
0.032918
  0
VERTEX
  8
0
 10
93.522174
 20
42.897583
 42
0.028047
  0
VERTEX
  8
0
 10
91.907964
 20
42.590981
 42
0.029015
  0
VERTEX
  8
0
 10
90.467778
 20
42.142644
 42
0.067995
  0
SEQEND
  0
POLYLINE
  8
0
 66
1
 70
1
  0
VERTEX
  8
0
 10
98.443296
 20
38.777494
 42
-0.111662
  0
VERTEX
  8
0
 10
99.909336
 20
35.196809
 42
-0.102196
  0
VERTEX
  8
0
 10
99.759835
 20
31.209809
 42
-0.123871
  0
VERTEX
  8
0
 10
98.138108
 20
28.152106
 42
-0.212270
  0
VERTEX
  8
0
 10
95.546604
 20
27.000000
 42
-0.042914
  0
VERTEX
  8
0
 10
92.538894
 20
27.258624
 42
-0.176075
  0
VERTEX
  8
0
 10
90.975943
 20
28.153778
 42
-0.148622
  0
VERTEX
  8
0
 10
90.202145
 20
29.948816
 42
-0.027988
  0
VERTEX
  8
0
 10
90.000000
 20
33.557299
 42
-0.016102
  0
VERTEX
  8
0
 10
90.085516
 20
36.212022
 42
-0.051045
  0
VERTEX
  8
0
 10
90.379567
 20
37.962754
 42
-0.080432
  0
VERTEX
  8
0
 10
90.916287
 20
39.136367
 42
-0.113974
  0
VERTEX
  8
0
 10
91.750000
 20
39.919901
 42
-0.063510
  0
VERTEX
  8
0
 10
93.738918
 20
40.762120
 42
-0.111145
  0
VERTEX
  8
0
 10
95.516667
 20
40.855236
 42
-0.118904
  0
VERTEX
  8
0
 10
97.081113
 20
40.183176
 42
-0.079502
  0
SEQEND
  0
POLYLINE
  8
0
 66
1
 70
1
  0
VERTEX
  8
0
 10
116.000000
 20
35.952034
 42
0.010103
  0
VERTEX
  8
0
 10
116.084411
 20
31.774981
 42
0.060637
  0
VERTEX
  8
0
 10
116.433402
 20
29.633370
 42
0.096157
  0
VERTEX
  8
0
 10
117.220353
 20
28.100838
 42
0.045767
  0
VERTEX
  8
0
 10
118.750000
 20
26.483635
 42
0.078190
  0
VERTEX
  8
0
 10
121.241458
 20
24.901825
 42
0.076658
  0
VERTEX
  8
0
 10
124.115289
 20
24.147764
 42
0.081309
  0
VERTEX
  8
0
 10
126.928683
 20
24.313023
 42
0.107504
  0
VERTEX
  8
0
 10
129.250000
 20
25.392046
 42
0.205553
  0
VERTEX
  8
0
 10
130.738099
 20
28.015137
 42
0.024099
  0
VERTEX
  8
0
 10
131.166921
 20
34.879839
 42
0.022072
  0
VERTEX
  8
0
 10
130.964456
 20
41.640198
 42
0.392680
  0
VERTEX
  8
0
 10
129.500000
 20
43.000000
 42
0.258593
  0
VERTEX
  8
0
 10
128.753078
 20
42.586019
 42
0.093584
  0
VERTEX
  8
0
 10
128.296875
 20
41.416667
 42
0.039364
  0
VERTEX
  8
0
 10
128.058630
 20
39.191484
 42
0.006994
  0
VERTEX
  8
0
 10
128.000000
 20
35.000000
 42
0.000000
  0
VERTEX
  8
0
 10
128.000000
 20
27.000000
 42
0.000000
  0
VERTEX
  8
0
 10
124.535184
 20
27.000000
 42
-0.093832
  0
VERTEX
  8
0
 10
121.794186
 20
27.518957
 42
-0.173774
  0
VERTEX
  8
0
 10
120.109628
 20
28.991503
 42
-0.104544
  0
VERTEX
  8
0
 10
119.234593
 20
31.820158
 42
-0.022924
  0
VERTEX
  8
0
 10
119.000000
 20
36.934259
 42
0.010441
  0
VERTEX
  8
0
 10
118.935804
 20
40.008104
 42
0.050208
  0
VERTEX
  8
0
 10
118.688177
 20
41.739043
 42
0.112800
  0
VERTEX
  8
0
 10
118.223952
 20
42.659589
 42
0.223375
  0
VERTEX
  8
0
 10
117.500000
 20
43.000000
 42
0.242321
  0
VERTEX
  8
0
 10
116.763547
 20
42.620818
 42
0.102897
  0
VERTEX
  8
0
 10
116.303207
 20
41.575339
 42
0.044082
  0
VERTEX
  8
0
 10
116.060965
 20
39.592920
 42
0.008372
  0
SEQEND
  0
POLYLINE
  8
0
 66
1
 70
1
  0
VERTEX
  8
0
 10
137.174314
 20
40.685549
 42
0.055324
  0
VERTEX
  8
0
 10
136.132632
 20
39.297078
 42
0.062204
  0
VERTEX
  8
0
 10
135.469287
 20
37.766119
 42
0.049825
  0
VERTEX
  8
0
 10
135.111173
 20
35.853067
 42
0.021374
  0
VERTEX
  8
0
 10
135.000000
 20
33.253643
 42
0.017837
  0
VERTEX
  8
0
 10
135.104315
 20
30.330525
 42
0.078354
  0
VERTEX
  8
0
 10
135.492917
 20
28.653712
 42
0.101395
  0
VERTEX
  8
0
 10
136.326008
 20
27.399227
 42
0.040949
  0
VERTEX
  8
0
 10
137.904370
 20
26.068094
 42
0.057691
  0
VERTEX
  8
0
 10
140.386213
 20
24.700887
 42
0.079179
  0
VERTEX
  8
0
 10
142.863591
 20
24.120198
 42
0.088068
  0
VERTEX
  8
0
 10
145.193087
 20
24.362095
 42
0.092803
  0
VERTEX
  8
0
 10
147.250000
 20
25.392046
 42
0.039240
  0
VERTEX
  8
0
 10
148.797642
 20
26.770783
 42
0.444941
  0
VERTEX
  8
0
 10
148.744706
 20
27.498005
 42
0.189273
  0
VERTEX
  8
0
 10
147.641467
 20
27.823307
 42
0.015367
  0
VERTEX
  8
0
 10
144.588822
 20
27.461049
 42
-0.015698
  0
VERTEX
  8
0
 10
142.120542
 20
27.169792
 42
-0.082863
  0
VERTEX
  8
0
 10
140.766483
 20
27.277375
 42
-0.136621
  0
VERTEX
  8
0
 10
139.860514
 20
27.791530
 42
-0.073040
  0
VERTEX
  8
0
 10
139.088822
 20
28.834034
 42
-0.076204
  0
VERTEX
  8
0
 10
138.247598
 20
31.217573
 42
-0.060064
  0
VERTEX
  8
0
 10
138.063638
 20
33.951549
 42
-0.060401
  0
VERTEX
  8
0
 10
138.533693
 20
36.634282
 42
-0.079392
  0
VERTEX
  8
0
 10
139.619016
 20
38.866457
 42
-0.046500
  0
VERTEX
  8
0
 10
140.611384
 20
40.035248
 42
-0.113047
  0
VERTEX
  8
0
 10
141.570680
 20
40.621790
 42
-0.097991
  0
VERTEX
  8
0
 10
142.777254
 20
40.777432
 42
-0.029602
  0
VERTEX
  8
0
 10
144.619016
 20
40.543650
 42
0.044110
  0
VERTEX
  8
0
 10
146.775573
 20
40.333191
 42
0.204862
  0
VERTEX
  8
0
 10
147.905011
 20
40.804084
 42
0.444272
  0
VERTEX
  8
0
 10
147.855308
 20
41.573489
 42
0.076076
  0
VERTEX
  8
0
 10
146.418213
 20
42.393011
 42
0.068674
  0
VERTEX
  8
0
 10
143.920588
 20
42.975902
 42
0.068807
  0
VERTEX
  8
0
 10
141.360151
 20
42.859947
 42
0.071741
  0
VERTEX
  8
0
 10
139.022759
 20
42.070052
 42
0.087090
  0
SEQEND
  0
POLYLINE
  8
0
 66
1
 70
1
  0
VERTEX
  8
0
 10
153.000000
 20
33.500000
 42
0.008575
  0
VERTEX
  8
0
 10
153.066212
 20
29.639392
 42
0.017647
  0
VERTEX
  8
0
 10
153.276316
 20
26.625000
 42
0.013417
  0
VERTEX
  8
0
 10
153.576184
 20
24.361438
 42
0.368504
  0
VERTEX
  8
0
 10
154.000000
 20
24.000000
 42
0.368504
  0
VERTEX
  8
0
 10
154.423816
 20
24.361438
 42
0.013417
  0
VERTEX
  8
0
 10
154.723684
 20
26.625000
 42
0.017647
  0
VERTEX
  8
0
 10
154.933788
 20
29.639392
 42
0.008575
  0
VERTEX
  8
0
 10
155.000000
 20
33.500000
 42
0.008575
  0
VERTEX
  8
0
 10
154.933788
 20
37.360608
 42
0.017647
  0
VERTEX
  8
0
 10
154.723684
 20
40.375000
 42
0.013417
  0
VERTEX
  8
0
 10
154.423816
 20
42.638562
 42
0.368504
  0
VERTEX
  8
0
 10
154.000000
 20
43.000000
 42
0.368504
  0
VERTEX
  8
0
 10
153.576184
 20
42.638562
 42
0.013417
  0
VERTEX
  8
0
 10
153.276316
 20
40.375000
 42
0.017647
  0
VERTEX
  8
0
 10
153.066212
 20
37.360608
 42
0.008575
  0
SEQEND
  0
POLYLINE
  8
0
 66
1
 70
1
  0
VERTEX
  8
0
 10
162.222506
 20
41.443296
 42
0.074798
  0
VERTEX
  8
0
 10
161.060973
 20
40.338584
 42
0.096904
  0
VERTEX
  8
0
 10
160.399298
 20
39.029323
 42
0.057086
  0
VERTEX
  8
0
 10
160.081942
 20
37.071386
 42
0.011661
  0
VERTEX
  8
0
 10
160.000000
 20
33.558306
 42
0.011090
  0
VERTEX
  8
0
 10
160.080916
 20
29.910457
 42
0.064219
  0
VERTEX
  8
0
 10
160.411174
 20
28.016276
 42
0.109393
  0
VERTEX
  8
0
 10
161.132014
 20
26.753792
 42
0.063595
  0
VERTEX
  8
0
 10
162.464817
 20
25.615010
 42
0.062483
  0
VERTEX
  8
0
 10
164.890905
 20
24.427370
 42
0.094642
  0
VERTEX
  8
0
 10
167.210751
 20
24.096405
 42
0.090464
  0
VERTEX
  8
0
 10
169.564472
 20
24.641181
 42
0.052772
  0
VERTEX
  8
0
 10
172.095630
 20
26.068094
 42
0.041262
  0
VERTEX
  8
0
 10
173.682425
 20
27.408038
 42
0.102762
  0
VERTEX
  8
0
 10
174.513558
 20
28.670385
 42
0.077696
  0
VERTEX
  8
0
 10
174.898287
 20
30.371879
 42
0.016825
  0
VERTEX
  8
0
 10
175.000000
 20
33.393780
 42
0.019087
  0
VERTEX
  8
0
 10
174.894145
 20
36.165777
 42
0.056451
  0
VERTEX
  8
0
 10
174.536558
 20
38.033981
 42
0.074231
  0
VERTEX
  8
0
 10
173.840026
 20
39.475573
 42
0.054635
  0
VERTEX
  8
0
 10
172.685549
 20
40.825686
 42
0.092568
  0
VERTEX
  8
0
 10
170.390823
 20
42.295167
 42
0.081683
  0
VERTEX
  8
0
 10
167.616525
 20
42.921276
 42
0.080732
  0
VERTEX
  8
0
 10
164.758345
 20
42.628277
 42
0.087155
  0
SEQEND
  0
POLYLINE
  8
0
 66
1
 70
1
  0
VERTEX
  8
0
 10
170.443296
 20
38.777494
 42
-0.112695
  0
VERTEX
  8
0
 10
171.861877
 20
35.292467
 42
-0.093996
  0
VERTEX
  8
0
 10
171.760468
 20
31.287339
 42
-0.113937
  0
VERTEX
  8
0
 10
170.290120
 20
28.161283
 42
-0.229994
  0
VERTEX
  8
0
 10
167.899075
 20
27.000000
 42
-0.068322
  0
VERTEX
  8
0
 10
165.145186
 20
27.378067
 42
-0.144534
  0
VERTEX
  8
0
 10
163.336272
 20
28.512023
 42
-0.130570
  0
VERTEX
  8
0
 10
162.321671
 20
30.538922
 42
-0.051152
  0
VERTEX
  8
0
 10
162.000000
 20
33.674941
 42
-0.089668
  0
VERTEX
  8
0
 10
162.767792
 20
37.921811
 42
-0.168951
  0
VERTEX
  8
0
 10
164.965677
 20
40.571540
 42
-0.230244
  0
VERTEX
  8
0
 10
167.801993
 20
40.830355
 42
-0.150670
  0
SEQEND
  0
POLYLINE
  8
0
 66
1
 70
1
  0
VERTEX
  8
0
 10
180.250000
 20
42.337719
 42
0.236635
  0
VERTEX
  8
0
 10
179.667491
 20
41.676967
 42
0.031775
  0
VERTEX
  8
0
 10
179.298733
 20
39.802998
 42
0.024537
  0
VERTEX
  8
0
 10
179.067702
 20
36.981590
 42
0.008160
  0
VERTEX
  8
0
 10
179.000000
 20
32.833333
 42
0.006432
  0
VERTEX
  8
0
 10
179.056655
 20
28.429265
 42
0.029712
  0
VERTEX
  8
0
 10
179.273271
 20
25.891008
 42
0.061962
  0
VERTEX
  8
0
 10
179.649985
 20
24.520821
 42
0.392845
  0
VERTEX
  8
0
 10
180.250000
 20
24.245586
 42
0.237636
  0
VERTEX
  8
0
 10
180.822421
 20
24.817763
 42
0.028008
  0
VERTEX
  8
0
 10
181.304994
 20
26.610191
 42
0.025027
  0
VERTEX
  8
0
 10
181.709121
 20
29.163920
 42
0.010967
  0
VERTEX
  8
0
 10
182.000000
 20
32.578919
 42
-0.005553
  0
VERTEX
  8
0
 10
182.370377
 20
37.565051
 42
-0.067689
  0
VERTEX
  8
0
 10
182.788145
 20
39.429552
 42
-0.183491
  0
VERTEX
  8
0
 10
183.583136
 20
40.338644
 42
-0.093605
  0
VERTEX
  8
0
 10
185.052176
 20
40.797333
 42
-0.129535
  0
VERTEX
  8
0
 10
187.630854
 20
40.429586
 42
-0.154275
  0
VERTEX
  8
0
 10
189.493891
 20
38.843011
 42
-0.096766
  0
VERTEX
  8
0
 10
190.664449
 20
35.791629
 42
-0.031646
  0
VERTEX
  8
0
 10
191.196297
 20
30.980600
 42
0.011927
  0
VERTEX
  8
0
 10
191.593528
 20
25.370042
 42
0.446917
  0
VERTEX
  8
0
 10
192.508670
 20
24.694797
 42
0.331574
  0
VERTEX
  8
0
 10
193.422421
 20
25.724979
 42
0.011019
  0
VERTEX
  8
0
 10
193.789155
 20
31.519410
 42
0.035892
  0
VERTEX
  8
0
 10
193.614853
 20
37.217018
 42
0.129231
  0
VERTEX
  8
0
 10
192.347151
 20
40.591370
 42
0.170251
  0
VERTEX
  8
0
 10
189.825199
 20
42.380866
 42
0.074788
  0
VERTEX
  8
0
 10
185.711045
 20
42.921053
 42
0.010350
  0
VERTEX
  8
0
 10
184.007189
 20
42.853809
 42
0.011568
  0
VERTEX
  8
0
 10
182.369807
 20
42.717133
 42
0.010932
  0
VERTEX
  8
0
 10
180.984182
 20
42.538409
 42
0.058414
  0
SEQEND
  0
POLYLINE
  8
0
 66
1
 70
1
  0
VERTEX
  8
0
 10
199.345077
 20
41.456872
 42
0.080754
  0
VERTEX
  8
0
 10
199.072209
 20
40.146142
 42
0.227634
  0
VERTEX
  8
0
 10
199.430197
 20
39.307732
 42
0.280068
  0
VERTEX
  8
0
 10
200.225179
 20
39.168434
 42
0.103547
  0
VERTEX
  8
0
 10
201.216667
 20
39.816667
 42
-0.172197
  0
VERTEX
  8
0
 10
203.595295
 20
40.949140
 42
-0.131217
  0
VERTEX
  8
0
 10
206.465557
 20
40.492874
 42
-0.152904
  0
VERTEX
  8
0
 10
208.442453
 20
38.751836
 42
-0.231956
  0
VERTEX
  8
0
 10
208.643260
 20
36.512735
 42
-0.144480
  0
VERTEX
  8
0
 10
208.145587
 20
35.862651
 42
-0.075173
  0
VERTEX
  8
0
 10
207.231993
 20
35.386584
 42
-0.055022
  0
VERTEX
  8
0
 10
205.924035
 20
35.093573
 42
-0.027620
  0
VERTEX
  8
0
 10
204.231385
 20
35.000000
 42
0.047430
  0
VERTEX
  8
0
 10
201.314424
 20
34.722670
 42
0.124350
  0
VERTEX
  8
0
 10
199.422739
 20
33.839004
 42
0.146587
  0
VERTEX
  8
0
 10
198.361139
 20
32.271366
 42
0.076186
  0
VERTEX
  8
0
 10
198.000000
 20
29.915010
 42
0.189380
  0
VERTEX
  8
0
 10
199.227620
 20
26.790100
 42
0.120036
  0
VERTEX
  8
0
 10
202.535503
 20
24.607661
 42
0.109434
  0
VERTEX
  8
0
 10
206.743578
 20
24.073410
 42
0.140018
  0
VERTEX
  8
0
 10
210.369816
 20
25.479658
 42
0.092399
  0
VERTEX
  8
0
 10
211.314218
 20
26.517383
 42
0.092913
  0
VERTEX
  8
0
 10
211.819054
 20
27.823688
 42
0.051366
  0
VERTEX
  8
0
 10
211.980012
 20
29.810343
 42
0.010448
  0
VERTEX
  8
0
 10
211.829084
 20
33.343238
 42
0.017338
  0
VERTEX
  8
0
 10
211.574154
 20
35.929298
 42
0.020041
  0
VERTEX
  8
0
 10
211.147944
 20
38.368162
 42
0.019525
  0
VERTEX
  8
0
 10
210.628467
 20
40.384658
 42
0.100726
  0
VERTEX
  8
0
 10
210.086824
 20
41.395384
 42
0.168096
  0
VERTEX
  8
0
 10
208.023740
 20
42.646106
 42
0.051594
  0
VERTEX
  8
0
 10
204.350835
 20
43.047378
 42
0.051624
  0
VERTEX
  8
0
 10
200.815728
 20
42.701852
 42
0.256354
  0
SEQEND
  0
POLYLINE
  8
0
 66
1
 70
1
  0
VERTEX
  8
0
 10
209.000000
 20
30.000000
 42
-0.030561
  0
VERTEX
  8
0
 10
208.897333
 20
28.321894
 42
-0.163784
  0
VERTEX
  8
0
 10
208.506816
 20
27.507007
 42
-0.168560
  0
VERTEX
  8
0
 10
207.709987
 20
27.107009
 42
-0.032826
  0
VERTEX
  8
0
 10
206.081787
 20
27.000000
 42
-0.031039
  0
VERTEX
  8
0
 10
203.359927
 20
27.169128
 42
-0.081736
  0
VERTEX
  8
0
 10
201.491446
 20
27.721060
 42
-0.129299
  0
VERTEX
  8
0
 10
200.402842
 20
28.652027
 42
-0.152701
  0
VERTEX
  8
0
 10
200.000000
 20
29.940322
 42
-0.079168
  0
VERTEX
  8
0
 10
200.249009
 20
31.503116
 42
-0.182001
  0
VERTEX
  8
0
 10
200.982876
 20
32.417945
 42
-0.112347
  0
VERTEX
  8
0
 10
202.421825
 20
32.880318
 42
-0.021791
  0
VERTEX
  8
0
 10
205.166667
 20
33.000000
 42
-0.017329
  0
VERTEX
  8
0
 10
207.478874
 20
32.919838
 42
-0.149789
  0
VERTEX
  8
0
 10
208.430556
 20
32.554348
 42
-0.195861
  0
VERTEX
  8
0
 10
208.882357
 20
31.765123
 42
-0.033287
  0
SEQEND
  0
POLYLINE
  8
0
 66
1
 70
1
  0
VERTEX
  8
0
 10
226.852625
 20
42.353324
 42
0.167112
  0
VERTEX
  8
0
 10
225.569421
 20
41.468430
 42
0.086821
  0
VERTEX
  8
0
 10
224.690770
 20
39.707022
 42
0.053372
  0
VERTEX
  8
0
 10
224.176008
 20
36.923450
 42
0.018327
  0
VERTEX
  8
0
 10
224.013655
 20
32.822580
 42
0.022316
  0
VERTEX
  8
0
 10
224.119490
 20
30.286326
 42
0.071138
  0
VERTEX
  8
0
 10
224.502317
 20
28.639194
 42
0.087581
  0
VERTEX
  8
0
 10
225.279572
 20
27.357463
 42
0.046143
  0
VERTEX
  8
0
 10
226.634859
 20
26.072580
 42
0.074179
  0
VERTEX
  8
0
 10
229.080257
 20
24.677534
 42
0.076526
  0
VERTEX
  8
0
 10
231.800270
 20
24.076173
 42
0.087079
  0
VERTEX
  8
0
 10
234.262256
 20
24.345315
 42
0.149976
  0
VERTEX
  8
0
 10
235.972096
 20
25.466378
 42
0.101823
  0
VERTEX
  8
0
 10
236.807734
 20
27.033877
 42
0.239083
  0
VERTEX
  8
0
 10
236.573489
 20
28.302961
 42
0.172594
  0
VERTEX
  8
0
 10
235.268736
 20
29.152389
 42
0.054992
  0
VERTEX
  8
0
 10
232.934447
 20
29.446659
 42
-0.027404
  0
VERTEX
  8
0
 10
230.841975
 20
29.594053
 42
-0.182739
  0
VERTEX
  8
0
 10
229.934722
 20
30.074024
 42
-0.147534
  0
VERTEX
  8
0
 10
229.468215
 20
31.091901
 42
-0.016054
  0
VERTEX
  8
0
 10
229.195610
 20
33.686392
 42
0.000000
  0
VERTEX
  8
0
 10
228.891220
 20
37.872784
 42
0.000000
  0
VERTEX
  8
0
 10
232.695610
 20
38.186392
 42
0.021675
  0
VERTEX
  8
0
 10
234.648965
 20
38.433014
 42
0.094644
  0
VERTEX
  8
0
 10
235.735250
 20
38.838995
 42
0.158773
  0
VERTEX
  8
0
 10
236.299289
 20
39.495885
 42
0.098965
  0
VERTEX
  8
0
 10
236.500000
 20
40.500000
 42
0.098372
  0
VERTEX
  8
0
 10
236.298066
 20
41.516441
 42
0.172696
  0
VERTEX
  8
0
 10
235.730389
 20
42.145380
 42
0.095583
  0
VERTEX
  8
0
 10
234.614960
 20
42.495246
 42
0.018540
  0
VERTEX
  8
0
 10
232.500000
 20
42.656884
 42
0.011666
  0
VERTEX
  8
0
 10
230.847770
 20
42.683107
 42
0.011560
  0
VERTEX
  8
0
 10
229.191084
 20
42.632428
 42
0.011484
  0
VERTEX
  8
0
 10
227.745101
 20
42.521350
 42
0.043255
  0
SEQEND
  0
POLYLINE
  8
0
 66
1
 70
1
  0
VERTEX
  8
0
 10
242.250000
 20
40.781484
 42
0.051994
  0
VERTEX
  8
0
 10
241.161663
 20
39.341202
 42
0.063276
  0
VERTEX
  8
0
 10
240.477671
 20
37.796392
 42
0.051189
  0
VERTEX
  8
0
 10
240.112827
 20
35.880208
 42
0.021468
  0
VERTEX
  8
0
 10
240.000000
 20
33.253643
 42
0.017837
  0
VERTEX
  8
0
 10
240.104315
 20
30.330525
 42
0.078354
  0
VERTEX
  8
0
 10
240.492917
 20
28.653712
 42
0.101395
  0
VERTEX
  8
0
 10
241.326008
 20
27.399227
 42
0.040949
  0
VERTEX
  8
0
 10
242.904370
 20
26.068094
 42
0.061881
  0
VERTEX
  8
0
 10
245.647059
 20
24.586906
 42
0.095267
  0
VERTEX
  8
0
 10
248.291777
 20
24.101257
 42
0.097483
  0
VERTEX
  8
0
 10
250.884110
 20
24.634060
 42
0.067466
  0
VERTEX
  8
0
 10
253.471679
 20
26.156383
 42
0.043217
  0
VERTEX
  8
0
 10
255.023525
 20
27.610499
 42
0.115947
  0
VERTEX
  8
0
 10
255.745497
 20
28.930007
 42
0.073085
  0
VERTEX
  8
0
 10
255.975956
 20
30.780815
 42
0.010390
  0
VERTEX
  8
0
 10
255.811589
 20
34.617999
 42
0.009389
  0
VERTEX
  8
0
 10
255.608081
 20
37.083133
 42
0.013206
  0
VERTEX
  8
0
 10
255.327389
 20
39.271719
 42
0.009424
  0
VERTEX
  8
0
 10
255.014176
 20
41.066057
 42
0.149534
  0
VERTEX
  8
0
 10
254.727038
 20
41.606296
 42
0.132783
  0
VERTEX
  8
0
 10
254.221307
 20
41.896784
 42
0.013085
  0
VERTEX
  8
0
 10
252.842853
 20
42.221266
 42
0.015797
  0
VERTEX
  8
0
 10
251.149469
 20
42.517924
 42
0.011889
  0
VERTEX
  8
0
 10
249.271987
 20
42.740615
 42
0.019164
  0
VERTEX
  8
0
 10
246.605244
 20
42.890003
 42
0.072557
  0
VERTEX
  8
0
 10
244.952366
 20
42.678580
 42
0.093013
  0
VERTEX
  8
0
 10
243.648204
 20
42.036372
 42
0.044212
  0
SEQEND
  0
POLYLINE
  8
0
 66
1
 70
1
  0
VERTEX
  8
0
 10
250.807498
 20
33.750000
 42
-0.015952
  0
VERTEX
  8
0
 10
250.552911
 20
31.313907
 42
-0.112408
  0
VERTEX
  8
0
 10
250.135916
 20
30.205750
 42
-0.187559
  0
VERTEX
  8
0
 10
249.379593
 20
29.670127
 42
-0.061426
  0
VERTEX
  8
0
 10
248.000000
 20
29.500000
 42
-0.052962
  0
VERTEX
  8
0
 10
246.723040
 20
29.635642
 42
-0.144875
  0
VERTEX
  8
0
 10
245.934326
 20
30.065905
 42
-0.129501
  0
VERTEX
  8
0
 10
245.454774
 20
30.891774
 42
-0.038644
  0
VERTEX
  8
0
 10
245.175426
 20
32.334473
 42
-0.038562
  0
VERTEX
  8
0
 10
245.076302
 20
35.017634
 42
-0.124113
  0
VERTEX
  8
0
 10
245.578409
 20
36.718073
 42
-0.170403
  0
VERTEX
  8
0
 10
246.707700
 20
37.667617
 42
-0.090643
  0
VERTEX
  8
0
 10
248.526113
 20
38.000000
 42
-0.046977
  0
VERTEX
  8
0
 10
250.016798
 20
37.859635
 42
-0.226345
  0
VERTEX
  8
0
 10
250.685163
 20
37.369285
 42
-0.129567
  0
VERTEX
  8
0
 10
250.930739
 20
36.343371
 42
-0.012371
  0
SEQEND
  0
POLYLINE
  8
0
 66
1
 70
1
  0
VERTEX
  8
0
 10
261.250000
 20
42.337719
 42
0.236055
  0
VERTEX
  8
0
 10
260.668333
 20
41.679382
 42
0.032039
  0
VERTEX
  8
0
 10
260.299188
 20
39.819848
 42
0.024717
  0
VERTEX
  8
0
 10
260.067874
 20
37.021966
 42
0.008266
  0
VERTEX
  8
0
 10
260.000000
 20
32.916667
 42
0.003762
  0
VERTEX
  8
0
 10
260.044200
 20
27.041646
 42
0.064667
  0
VERTEX
  8
0
 10
260.320093
 20
25.141667
 42
0.224970
  0
VERTEX
  8
0
 10
261.049322
 20
24.303365
 42
0.103441
  0
VERTEX
  8
0
 10
262.500000
 20
24.000000
 42
0.083100
  0
VERTEX
  8
0
 10
263.944318
 20
24.241714
 42
0.227859
  0
VERTEX
  8
0
 10
264.660714
 20
24.950000
 42
0.080329
  0
VERTEX
  8
0
 10
264.949769
 20
26.514401
 42
0.005599
  0
VERTEX
  8
0
 10
265.000000
 20
31.000000
 42
-0.005667
  0
VERTEX
  8
0
 10
265.050534
 20
35.458879
 42
-0.078814
  0
VERTEX
  8
0
 10
265.337667
 20
37.037078
 42
-0.225156
  0
VERTEX
  8
0
 10
266.045768
 20
37.752582
 42
-0.087137
  0
VERTEX
  8
0
 10
267.454687
 20
38.000000
 42
-0.153401
  0
VERTEX
  8
0
 10
269.046859
 20
37.499745
 42
-0.151151
  0
VERTEX
  8
0
 10
270.078092
 20
36.176231
 42
-0.062478
  0
VERTEX
  8
0
 10
270.726872
 20
33.491154
 42
-0.009544
  0
VERTEX
  8
0
 10
271.240130
 20
28.000000
 42
0.027929
  0
VERTEX
  8
0
 10
271.473769
 20
26.212303
 42
0.099213
  0
VERTEX
  8
0
 10
271.904147
 20
25.145871
 42
0.137389
  0
VERTEX
  8
0
 10
272.623950
 20
24.519164
 42
0.075699
  0
VERTEX
  8
0
 10
273.750000
 20
24.180449
 42
0.103610
  0
VERTEX
  8
0
 10
275.016331
 20
24.263391
 42
0.247648
  0
VERTEX
  8
0
 10
275.680406
 20
24.891303
 42
0.076656
  0
VERTEX
  8
0
 10
275.952363
 20
26.430878
 42
0.005457
  0
VERTEX
  8
0
 10
276.000000
 20
30.795590
 42
0.035565
  0
VERTEX
  8
0
 10
275.571611
 20
36.810571
 42
0.122308
  0
VERTEX
  8
0
 10
274.110674
 20
40.409559
 42
0.162901
  0
VERTEX
  8
0
 10
271.420449
 20
42.325333
 42
0.078342
  0
VERTEX
  8
0
 10
267.177420
 20
42.921053
 42
0.009407
  0
VERTEX
  8
0
 10
265.294983
 20
42.853838
 42
0.010898
  0
VERTEX
  8
0
 10
263.506805
 20
42.717133
 42
0.010008
  0
VERTEX
  8
0
 10
262.002894
 20
42.538672
 42
0.061427
  0
SEQEND
  0
POLYLINE
  8
0
 66
1
 70
1
  0
VERTEX
  8
0
 10
285.006161
 20
41.316422
 42
0.053503
  0
VERTEX
  8
0
 10
285.103759
 20
40.435143
 42
0.021105
  0
VERTEX
  8
0
 10
285.417174
 20
39.254158
 42
0.020601
  0
VERTEX
  8
0
 10
285.866286
 20
37.995781
 42
0.024229
  0
VERTEX
  8
0
 10
286.396705
 20
36.846670
 42
-0.016641
  0
VERTEX
  8
0
 10
287.015314
 20
35.558225
 42
-0.007658
  0
VERTEX
  8
0
 10
287.738611
 20
33.842796
 42
-0.007575
  0
VERTEX
  8
0
 10
288.445119
 20
32.013429
 42
-0.010405
  0
VERTEX
  8
0
 10
289.020867
 20
30.346670
 42
0.076882
  0
VERTEX
  8
0
 10
291.711029
 20
24.987824
 42
0.373645
  0
VERTEX
  8
0
 10
294.757580
 20
24.252218
 42
0.178820
  0
VERTEX
  8
0
 10
297.922967
 20
27.728278
 42
0.029241
  0
VERTEX
  8
0
 10
300.891180
 20
36.500000
 42
0.011087
  0
VERTEX
  8
0
 10
301.805726
 20
40.147769
 42
0.092117
  0
VERTEX
  8
0
 10
301.873229
 20
41.844520
 42
0.243982
  0
VERTEX
  8
0
 10
301.270812
 20
42.683788
 42
0.117947
  0
VERTEX
  8
0
 10
299.948973
 20
43.000000
 42
0.209839
  0
VERTEX
  8
0
 10
298.321392
 20
42.285477
 42
0.059493
  0
VERTEX
  8
0
 10
296.666800
 20
39.990213
 42
0.055353
  0
VERTEX
  8
0
 10
295.421213
 20
37.003893
 42
0.071262
  0
VERTEX
  8
0
 10
295.000000
 20
34.063503
 42
-0.190177
  0
VERTEX
  8
0
 10
294.471971
 20
32.725453
 42
-0.428000
  0
VERTEX
  8
0
 10
293.493495
 20
32.715425
 42
-0.102557
  0
VERTEX
  8
0
 10
292.195631
 20
34.749994
 42
-0.045976
  0
VERTEX
  8
0
 10
291.340782
 20
37.820413
 42
0.016694
  0
VERTEX
  8
0
 10
290.770333
 20
40.457512
 42
0.094622
  0
VERTEX
  8
0
 10
290.167254
 20
41.754985
 42
0.147751
  0
VERTEX
  8
0
 10
289.260183
 20
42.449758
 42
0.061454
  0
VERTEX
  8
0
 10
287.745466
 20
42.816422
 42
0.030977
  0
VERTEX
  8
0
 10
286.386147
 20
42.888277
 42
0.123589
  0
VERTEX
  8
0
 10
285.585007
 20
42.679393
 42
0.183591
  0
VERTEX
  8
0
 10
285.153409
 20
42.173866
 42
0.086949
  0
SEQEND
  0
POLYLINE
  8
0
 66
1
 70
1
  0
VERTEX
  8
0
 10
305.974226
 20
40.250000
 42
0.113855
  0
VERTEX
  8
0
 10
304.401401
 20
36.922332
 42
0.073670
  0
VERTEX
  8
0
 10
304.111913
 20
32.654206
 42
0.075364
  0
VERTEX
  8
0
 10
305.062002
 20
28.592780
 42
0.134563
  0
VERTEX
  8
0
 10
307.117190
 20
25.876716
 42
0.087429
  0
VERTEX
  8
0
 10
309.819289
 20
24.466195
 42
0.089704
  0
VERTEX
  8
0
 10
312.816086
 20
24.081242
 42
0.089209
  0
VERTEX
  8
0
 10
315.771556
 20
24.770505
 42
0.085291
  0
VERTEX
  8
0
 10
318.353977
 20
26.452251
 42
0.041862
  0
VERTEX
  8
0
 10
319.667877
 20
27.892042
 42
0.072164
  0
VERTEX
  8
0
 10
320.461172
 20
29.303761
 42
0.064589
  0
VERTEX
  8
0
 10
320.872048
 20
30.990903
 42
0.027478
  0
VERTEX
  8
0
 10
321.000000
 20
33.317392
 42
0.062572
  0
VERTEX
  8
0
 10
320.468216
 20
37.550130
 42
0.118167
  0
VERTEX
  8
0
 10
318.872547
 20
40.576554
 42
0.129701
  0
VERTEX
  8
0
 10
316.199465
 20
42.375578
 42
0.083801
  0
VERTEX
  8
0
 10
312.500000
 20
43.000000
 42
0.026306
  0
VERTEX
  8
0
 10
310.157060
 20
42.876649
 42
0.073538
  0
VERTEX
  8
0
 10
308.568042
 20
42.467502
 42
0.084027
  0
VERTEX
  8
0
 10
307.288158
 20
41.653474
 42
0.042123
  0
SEQEND
  0
POLYLINE
  8
0
 66
1
 70
1
  0
VERTEX
  8
0
 10
315.000000
 20
33.500000
 42
-0.012699
  0
VERTEX
  8
0
 10
314.931926
 20
30.820113
 42
-0.114574
  0
VERTEX
  8
0
 10
314.611111
 20
29.700000
 42
-0.210352
  0
VERTEX
  8
0
 10
313.906761
 20
29.165617
 42
-0.058662
  0
VERTEX
  8
0
 10
312.500000
 20
29.000000
 42
-0.058662
  0
VERTEX
  8
0
 10
311.093239
 20
29.165617
 42
-0.210352
  0
VERTEX
  8
0
 10
310.388889
 20
29.700000
 42
-0.114574
  0
VERTEX
  8
0
 10
310.068074
 20
30.820113
 42
-0.012699
  0
VERTEX
  8
0
 10
310.000000
 20
33.500000
 42
-0.012699
  0
VERTEX
  8
0
 10
310.068074
 20
36.179887
 42
-0.114574
  0
VERTEX
  8
0
 10
310.388889
 20
37.300000
 42
-0.210352
  0
VERTEX
  8
0
 10
311.093239
 20
37.834383
 42
-0.058662
  0
VERTEX
  8
0
 10
312.500000
 20
38.000000
 42
-0.058662
  0
VERTEX
  8
0
 10
313.906761
 20
37.834383
 42
-0.210352
  0
VERTEX
  8
0
 10
314.611111
 20
37.300000
 42
-0.114574
  0
VERTEX
  8
0
 10
314.931926
 20
36.179887
 42
-0.012699
  0
SEQEND
  0
POLYLINE
  8
0
 66
1
 70
1
  0
VERTEX
  8
0
 10
325.621267
 20
41.478410
 42
0.051119
  0
VERTEX
  8
0
 10
325.000671
 20
40.716052
 42
0.038187
  0
VERTEX
  8
0
 10
324.476247
 20
39.766872
 42
0.039022
  0
VERTEX
  8
0
 10
324.117385
 20
38.785044
 42
0.068209
  0
VERTEX
  8
0
 10
324.000000
 20
37.928571
 42
0.130995
  0
VERTEX
  8
0
 10
324.505264
 20
36.033097
 42
0.065108
  0
VERTEX
  8
0
 10
326.023162
 20
34.040723
 42
0.065197
  0
VERTEX
  8
0
 10
327.998428
 20
32.509258
 42
0.133103
  0
VERTEX
  8
0
 10
329.877555
 20
32.000000
 42
-0.071585
  0
VERTEX
  8
0
 10
330.694104
 20
31.882493
 42
-0.044601
  0
VERTEX
  8
0
 10
331.595598
 20
31.527646
 42
-0.043885
  0
VERTEX
  8
0
 10
332.440599
 20
31.007415
 42
-0.059697
  0
VERTEX
  8
0
 10
333.089644
 20
30.391985
 42
-0.076964
  0
VERTEX
  8
0
 10
333.600559
 20
29.537907
 42
-0.429532
  0
VERTEX
  8
0
 10
333.403520
 20
29.103618
 42
-0.095834
  0
VERTEX
  8
0
 10
332.426420
 20
28.963557
 42
-0.005898
  0
VERTEX
  8
0
 10
329.481034
 20
29.141985
 42
0.013434
  0
VERTEX
  8
0
 10
326.949456
 20
29.257085
 42
0.061506
  0
VERTEX
  8
0
 10
325.488639
 20
29.104183
 42
0.125961
  0
VERTEX
  8
0
 10
324.653708
 20
28.671896
 42
0.163682
  0
VERTEX
  8
0
 10
324.229955
 20
27.928280
 42
0.249168
  0
VERTEX
  8
0
 10
324.643913
 20
26.565578
 42
0.078338
  0
VERTEX
  8
0
 10
326.421134
 20
25.266701
 42
0.062818
  0
VERTEX
  8
0
 10
329.017984
 20
24.320831
 42
0.056016
  0
VERTEX
  8
0
 10
331.872739
 20
24.000000
 42
0.115405
  0
VERTEX
  8
0
 10
334.287963
 20
24.564984
 42
0.074480
  0
VERTEX
  8
0
 10
336.656220
 20
26.214126
 42
0.075621
  0
VERTEX
  8
0
 10
338.402883
 20
28.451337
 42
0.128685
  0
VERTEX
  8
0
 10
339.000000
 20
30.732991
 42
0.126295
  0
VERTEX
  8
0
 10
338.713810
 20
31.847941
 42
0.087420
  0
VERTEX
  8
0
 10
337.894325
 20
32.867743
 42
0.055479
  0
VERTEX
  8
0
 10
336.414984
 20
33.898686
 42
0.018333
  0
VERTEX
  8
0
 10
334.039984
 20
35.078726
 42
-0.022356
  0
VERTEX
  8
0
 10
330.682457
 20
36.780745
 42
-0.221347
  0
VERTEX
  8
0
 10
329.785583
 20
38.033718
 42
-0.450086
  0
VERTEX
  8
0
 10
330.416728
 20
38.846482
 42
-0.040000
  0
VERTEX
  8
0
 10
333.341019
 20
38.801781
 42
0.023486
  0
VERTEX
  8
0
 10
335.011298
 20
38.721079
 42
0.124278
  0
VERTEX
  8
0
 10
335.892850
 20
38.942398
 42
0.196825
  0
VERTEX
  8
0
 10
336.348056
 20
39.495229
 42
0.075184
  0
VERTEX
  8
0
 10
336.500000
 20
40.500000
 42
0.110355
  0
VERTEX
  8
0
 10
336.269250
 20
41.532761
 42
0.169090
  0
VERTEX
  8
0
 10
335.633929
 20
42.181887
 42
0.084516
  0
VERTEX
  8
0
 10
334.364895
 20
42.564043
 42
0.014797
  0
VERTEX
  8
0
 10
331.871267
 20
42.799839
 42
0.022244
  0
VERTEX
  8
0
 10
329.665178
 20
42.844421
 42
0.046054
  0
VERTEX
  8
0
 10
327.954965
 20
42.644591
 42
0.059783
  0
VERTEX
  8
0
 10
326.632985
 20
42.195052
 42
0.084750
  0
SEQEND
  0
ENDSEC
  0
EOF
